<?xml version="1.0" encoding="utf-8"?>
<!-- Generator: Adobe Illustrator 23.0.0, SVG Export Plug-In . SVG Version: 6.00 Build 0)  -->
<svg version="1.1" xmlns="http://www.w3.org/2000/svg" xmlns:xlink="http://www.w3.org/1999/xlink" x="0px" y="0px"
	 viewBox="0 0 150.24 240.94" style="enable-background:new 0 0 150.24 240.94;" xml:space="preserve">
<style type="text/css">
	.st0{clip-path:url(#SVGID_2_);fill-rule:evenodd;clip-rule:evenodd;fill:#2E457C;}
	.st1{clip-path:url(#SVGID_2_);}
	.st2{fill-rule:evenodd;clip-rule:evenodd;fill:#2E457C;stroke:#FFFFFF;stroke-width:0.5717;stroke-miterlimit:22.9256;}
	.st3{fill-rule:evenodd;clip-rule:evenodd;fill:#2E457C;stroke:#FFFFFF;stroke-width:0.5669;stroke-miterlimit:22.9256;}
	.st4{fill-rule:evenodd;clip-rule:evenodd;fill:#FFFFFF;stroke:#000000;stroke-width:0.5669;stroke-miterlimit:22.9256;}
	.st5{fill-rule:evenodd;clip-rule:evenodd;fill:none;stroke:#000000;stroke-width:0.5669;stroke-miterlimit:22.9256;}
	.st6{font-family:'ArialMT';}
	.st7{font-size:4.4042px;}
	.st8{fill-rule:evenodd;clip-rule:evenodd;}
</style>
<g id="Camada_1">
	<path class="st4" d="M13.23,66.44h122.2c2.18,0,3.97,1.31,3.97,2.92v11.66c0,1.61-1.79,2.92-3.97,2.92H13.23
		c-2.18,0-3.97-1.31-3.97-2.92V69.36C9.26,67.75,11.04,66.44,13.23,66.44z"/>
	<path class="st4" d="M13.23,88.76h122.2c2.18,0,3.97,1.31,3.97,2.92v11.66c0,1.61-1.79,2.92-3.97,2.92H13.23
		c-2.18,0-3.97-1.31-3.97-2.92V91.68C9.26,90.07,11.04,88.76,13.23,88.76z"/>
	<text transform="matrix(1.1295 0 0 1 13.0928 94.5817)"><tspan x="0" y="0" class="st6 st7">R</tspan><tspan x="3.18" y="0" class="st6 st7">G:</tspan></text>
	<text transform="matrix(1.1295 0 0 1 13.0928 72.0042)"><tspan x="0" y="0" class="st6 st7">C</tspan><tspan x="3.18" y="0" class="st6 st7">PF:</tspan></text>
	<path class="st4" d="M13.23,43.77h122.2c2.18,0,3.97,1.31,3.97,2.92v11.66c0,1.61-1.79,2.92-3.97,2.92H13.23
		c-2.18,0-3.97-1.31-3.97-2.92V46.69C9.26,45.08,11.04,43.77,13.23,43.77z"/>
	<text transform="matrix(1.1295 0 0 1 13.0928 48.7461)"><tspan x="0" y="0" class="st6 st7">E</tspan><tspan x="2.94" y="0" class="st6 st7">MPRESA:</tspan></text>
	<path class="st4" d="M11.3,111.25h62.9c1.12,0,2.04,1.31,2.04,2.92v11.66c0,1.61-0.92,2.92-2.04,2.92H11.3
		c-1.12,0-2.04-1.31-2.04-2.92v-11.66C9.26,112.56,10.18,111.25,11.3,111.25z"/>
	<text transform="matrix(1.1295 0 0 1 13.0928 117.075)"><tspan x="0" y="0" class="st6 st7">A</tspan><tspan x="2.94" y="0" class="st6 st7">DMISSÃO:</tspan></text>
	<path class="st4" d="M81.56,111.25h56.01c1,0,1.82,1.31,1.82,2.92v11.66c0,1.61-0.82,2.92-1.82,2.92H81.56
		c-1,0-1.82-1.31-1.82-2.92v-11.66C79.74,112.56,80.56,111.25,81.56,111.25z"/>
	<text transform="matrix(1.1295 0 0 1 83.5788 117.075)"><tspan x="0" y="0" class="st6 st7">M</tspan><tspan x="3.67" y="0" class="st6 st7">ATRÍCULA:</tspan></text>
</g>
<g id="Camada_1_1_">
	<path class="st5" d="M6.4,0h137.43c3.52,0,6.4,2.88,6.4,6.4v228.14c0,3.52-2.88,6.4-6.4,6.4H6.4c-3.52,0-6.4-2.88-6.4-6.4V6.4
		C0,2.88,2.88,0,6.4,0z"/>
	<path class="st5" d="M59.37,9.21h31.41c2.08,0,3.78,1.7,3.78,3.78v0c0,2.08-1.7,3.78-3.78,3.78H59.37c-2.08,0-3.78-1.7-3.78-3.78v0
		C55.59,10.92,57.29,9.21,59.37,9.21z"/>
	<g>
		<path class="st8" d="M11.46,143.74H12v1.64c0,0.26,0.01,0.43,0.02,0.51c0.02,0.12,0.08,0.22,0.16,0.3
			c0.09,0.08,0.2,0.11,0.35,0.11c0.15,0,0.26-0.04,0.34-0.11c0.08-0.07,0.12-0.16,0.14-0.26c0.02-0.1,0.02-0.27,0.02-0.51v-1.67
			h0.54v1.59c0,0.36-0.01,0.62-0.04,0.77c-0.03,0.15-0.08,0.28-0.16,0.38c-0.08,0.1-0.18,0.19-0.31,0.25
			c-0.13,0.06-0.3,0.09-0.51,0.09c-0.25,0-0.44-0.03-0.57-0.1c-0.13-0.07-0.23-0.15-0.31-0.26c-0.08-0.11-0.13-0.22-0.15-0.34
			c-0.03-0.17-0.05-0.43-0.05-0.77V143.74L11.46,143.74z M14,145.78l0.52-0.06c0.03,0.2,0.1,0.35,0.19,0.44
			c0.1,0.09,0.22,0.14,0.39,0.14c0.17,0,0.3-0.04,0.39-0.12c0.09-0.08,0.13-0.18,0.13-0.29c0-0.07-0.02-0.13-0.05-0.18
			c-0.04-0.05-0.1-0.09-0.19-0.13c-0.06-0.03-0.2-0.07-0.43-0.13c-0.29-0.08-0.49-0.18-0.6-0.3c-0.16-0.17-0.24-0.37-0.24-0.61
			c0-0.15,0.04-0.3,0.11-0.43c0.08-0.13,0.19-0.24,0.33-0.31c0.14-0.07,0.32-0.11,0.52-0.11c0.33,0,0.58,0.08,0.75,0.25
			c0.17,0.17,0.26,0.39,0.26,0.67l-0.54,0.02c-0.02-0.16-0.07-0.27-0.15-0.34c-0.07-0.07-0.19-0.1-0.34-0.1
			c-0.15,0-0.28,0.04-0.36,0.11c-0.06,0.05-0.08,0.11-0.08,0.19c0,0.07,0.03,0.13,0.08,0.18c0.07,0.07,0.23,0.13,0.49,0.2
			c0.26,0.07,0.45,0.14,0.58,0.22c0.12,0.08,0.22,0.18,0.29,0.31c0.07,0.13,0.11,0.29,0.11,0.48c0,0.17-0.04,0.34-0.13,0.49
			c-0.08,0.15-0.2,0.26-0.36,0.34c-0.15,0.07-0.35,0.11-0.58,0.11c-0.34,0-0.59-0.09-0.77-0.26C14.14,146.38,14.03,146.12,14,145.78
			L14,145.78z M16.5,145.27c0-0.31,0.04-0.57,0.12-0.78c0.06-0.15,0.14-0.29,0.25-0.42c0.1-0.12,0.22-0.21,0.34-0.27
			c0.17-0.08,0.36-0.12,0.57-0.12c0.39,0,0.7,0.14,0.94,0.42c0.23,0.28,0.35,0.66,0.35,1.16c0,0.49-0.12,0.87-0.35,1.15
			c-0.23,0.28-0.55,0.41-0.93,0.41c-0.4,0-0.71-0.14-0.94-0.41C16.62,146.13,16.5,145.75,16.5,145.27L16.5,145.27z M17.05,145.25
			c0,0.34,0.07,0.6,0.21,0.78c0.14,0.18,0.32,0.27,0.53,0.27c0.21,0,0.39-0.09,0.53-0.26c0.14-0.18,0.21-0.44,0.21-0.79
			c0-0.35-0.07-0.61-0.2-0.78c-0.13-0.17-0.31-0.26-0.53-0.26s-0.4,0.09-0.54,0.26C17.12,144.64,17.05,144.9,17.05,145.25
			L17.05,145.25z M20.53,146.76v-3.03h1.13c0.28,0,0.49,0.03,0.62,0.08c0.13,0.05,0.23,0.15,0.31,0.29c0.08,0.14,0.12,0.3,0.12,0.48
			c0,0.23-0.06,0.42-0.17,0.56c-0.12,0.15-0.29,0.24-0.52,0.28c0.12,0.08,0.21,0.16,0.29,0.25c0.08,0.09,0.18,0.26,0.3,0.49
			l0.32,0.59h-0.64l-0.38-0.66c-0.14-0.23-0.23-0.38-0.28-0.44c-0.05-0.06-0.1-0.1-0.16-0.13c-0.06-0.02-0.15-0.03-0.27-0.03h-0.11
			v1.26H20.53L20.53,146.76z M21.06,145.02h0.4c0.26,0,0.42-0.01,0.48-0.04c0.06-0.02,0.11-0.07,0.15-0.13
			c0.04-0.06,0.05-0.14,0.05-0.23c0-0.1-0.02-0.18-0.07-0.25c-0.05-0.06-0.11-0.1-0.2-0.12c-0.04-0.01-0.17-0.01-0.39-0.01h-0.42
			V145.02L21.06,145.02z M23.21,146.76v-3.03h1.97v0.51h-1.43v0.67h1.33v0.51h-1.33v0.82h1.48v0.51H23.21L23.21,146.76z
			 M25.54,145.78l0.52-0.06c0.03,0.2,0.09,0.35,0.19,0.44c0.1,0.09,0.22,0.14,0.39,0.14c0.17,0,0.3-0.04,0.39-0.12
			c0.09-0.08,0.13-0.18,0.13-0.29c0-0.07-0.02-0.13-0.06-0.18c-0.04-0.05-0.1-0.09-0.19-0.13c-0.06-0.03-0.2-0.07-0.43-0.13
			c-0.29-0.08-0.49-0.18-0.6-0.3c-0.16-0.17-0.24-0.37-0.24-0.61c0-0.15,0.04-0.3,0.11-0.43c0.08-0.13,0.19-0.24,0.33-0.31
			c0.14-0.07,0.32-0.11,0.52-0.11c0.33,0,0.58,0.08,0.75,0.25c0.17,0.17,0.26,0.39,0.26,0.67l-0.54,0.02
			c-0.02-0.16-0.07-0.27-0.15-0.34c-0.07-0.07-0.19-0.1-0.34-0.1c-0.15,0-0.28,0.04-0.36,0.11c-0.06,0.05-0.08,0.11-0.08,0.19
			c0,0.07,0.03,0.13,0.08,0.18c0.07,0.07,0.23,0.13,0.49,0.2c0.26,0.07,0.45,0.14,0.58,0.22c0.12,0.08,0.22,0.18,0.29,0.31
			c0.07,0.13,0.11,0.29,0.11,0.48c0,0.17-0.04,0.34-0.13,0.49c-0.09,0.15-0.2,0.26-0.36,0.34c-0.15,0.07-0.35,0.11-0.58,0.11
			c-0.34,0-0.59-0.09-0.77-0.26C25.68,146.38,25.57,146.12,25.54,145.78L25.54,145.78z M28.75,146.76v-2.51h-0.79v-0.51h2.11v0.51
			h-0.78v2.51H28.75L28.75,146.76z M30.42,146.76v-3.03h1.13c0.28,0,0.49,0.03,0.62,0.08c0.13,0.05,0.23,0.15,0.31,0.29
			c0.08,0.14,0.12,0.3,0.12,0.48c0,0.23-0.06,0.42-0.17,0.56c-0.12,0.15-0.29,0.24-0.52,0.28c0.12,0.08,0.21,0.16,0.29,0.25
			c0.08,0.09,0.18,0.26,0.3,0.49l0.32,0.59h-0.64l-0.38-0.66c-0.14-0.23-0.23-0.38-0.28-0.44c-0.05-0.06-0.1-0.1-0.16-0.13
			c-0.06-0.02-0.15-0.03-0.27-0.03h-0.11v1.26H30.42L30.42,146.76z M30.96,145.02h0.4c0.26,0,0.42-0.01,0.48-0.04
			c0.06-0.02,0.11-0.07,0.15-0.13c0.04-0.06,0.05-0.14,0.05-0.23c0-0.1-0.02-0.18-0.07-0.25c-0.05-0.06-0.11-0.1-0.2-0.12
			c-0.04-0.01-0.17-0.01-0.39-0.01h-0.42V145.02L30.96,145.02z M33.08,146.76v-3.03h0.54v3.03H33.08L33.08,146.76z M34.72,146.76
			v-2.51h-0.79v-0.51h2.11v0.51h-0.78v2.51H34.72L34.72,146.76z M38.51,146.76l-1.06-3.03h-0.57l-1.03,3.03h0.57l0.22-0.69h1.07
			l0.23,0.69H38.51L38.51,146.76z M37.53,145.56H36.8l0.36-1.12L37.53,145.56L37.53,145.56z M38.79,146.76v-3.03h0.81l0.48,2.06
			l0.47-2.06h0.81v3.03h-0.5l0-2.38l-0.52,2.38h-0.52l-0.52-2.38l0,2.38H38.79L38.79,146.76z M41.88,146.76v-3.03h1.97v0.51h-1.43
			v0.67h1.33v0.51h-1.33v0.82h1.48v0.51H41.88L41.88,146.76z M44.36,146.76v-3.03h0.52l1.09,2.03v-2.03h0.5v3.03h-0.54l-1.08-1.99
			v1.99H44.36L44.36,146.76z M47.63,146.76v-2.51h-0.79v-0.51h2.11v0.51h-0.78v2.51H47.63L47.63,146.76z M49.3,146.76v-3.03h1.97
			v0.51h-1.43v0.67h1.33v0.51h-1.33v0.82h1.48v0.51H49.3L49.3,146.76z M52.8,146.76v-3.03h0.86c0.33,0,0.54,0.01,0.64,0.05
			c0.15,0.05,0.28,0.14,0.38,0.3c0.1,0.15,0.15,0.35,0.15,0.59c0,0.19-0.03,0.34-0.09,0.47c-0.06,0.13-0.13,0.23-0.22,0.3
			c-0.09,0.07-0.18,0.12-0.28,0.14c-0.13,0.03-0.31,0.04-0.56,0.04h-0.35v1.14H52.8L52.8,146.76z M53.34,144.25v0.86h0.29
			c0.21,0,0.35-0.02,0.42-0.05c0.07-0.03,0.13-0.08,0.17-0.15c0.04-0.07,0.06-0.15,0.06-0.24c0-0.11-0.03-0.2-0.08-0.27
			c-0.06-0.07-0.13-0.12-0.21-0.14c-0.06-0.01-0.19-0.02-0.38-0.02H53.34L53.34,144.25z M55.28,146.76v-3.03h1.97v0.51h-1.43v0.67
			h1.33v0.51h-1.33v0.82h1.48v0.51H55.28L55.28,146.76z M57.61,145.78l0.52-0.06c0.03,0.2,0.09,0.35,0.19,0.44
			c0.1,0.09,0.22,0.14,0.39,0.14c0.17,0,0.3-0.04,0.39-0.12c0.09-0.08,0.13-0.18,0.13-0.29c0-0.07-0.02-0.13-0.06-0.18
			c-0.04-0.05-0.1-0.09-0.19-0.13c-0.06-0.03-0.2-0.07-0.43-0.13c-0.29-0.08-0.49-0.18-0.6-0.3c-0.16-0.17-0.24-0.37-0.24-0.61
			c0-0.15,0.04-0.3,0.11-0.43c0.08-0.13,0.19-0.24,0.33-0.31c0.14-0.07,0.32-0.11,0.52-0.11c0.33,0,0.58,0.08,0.75,0.25
			c0.17,0.17,0.26,0.39,0.26,0.67l-0.54,0.02c-0.02-0.16-0.07-0.27-0.15-0.34c-0.07-0.07-0.19-0.1-0.34-0.1
			c-0.15,0-0.28,0.04-0.36,0.11c-0.06,0.05-0.08,0.11-0.08,0.19c0,0.07,0.03,0.13,0.08,0.18c0.07,0.07,0.23,0.13,0.49,0.2
			c0.26,0.07,0.45,0.14,0.58,0.22c0.12,0.08,0.22,0.18,0.29,0.31c0.07,0.13,0.11,0.29,0.11,0.48c0,0.17-0.04,0.34-0.13,0.49
			c-0.08,0.15-0.2,0.26-0.36,0.34c-0.15,0.07-0.35,0.11-0.58,0.11c-0.34,0-0.59-0.09-0.77-0.26
			C57.75,146.38,57.64,146.12,57.61,145.78L57.61,145.78z M60.08,145.78l0.52-0.06c0.03,0.2,0.09,0.35,0.19,0.44
			c0.1,0.09,0.22,0.14,0.39,0.14c0.17,0,0.3-0.04,0.39-0.12c0.09-0.08,0.13-0.18,0.13-0.29c0-0.07-0.02-0.13-0.06-0.18
			c-0.04-0.05-0.1-0.09-0.19-0.13c-0.06-0.03-0.2-0.07-0.43-0.13c-0.29-0.08-0.49-0.18-0.6-0.3c-0.16-0.17-0.24-0.37-0.24-0.61
			c0-0.15,0.04-0.3,0.11-0.43c0.08-0.13,0.19-0.24,0.33-0.31c0.14-0.07,0.32-0.11,0.52-0.11c0.33,0,0.58,0.08,0.75,0.25
			c0.17,0.17,0.26,0.39,0.26,0.67l-0.54,0.02c-0.02-0.16-0.07-0.27-0.15-0.34c-0.07-0.07-0.19-0.1-0.34-0.1
			c-0.15,0-0.28,0.04-0.36,0.11c-0.06,0.05-0.08,0.11-0.08,0.19c0,0.07,0.03,0.13,0.08,0.18c0.07,0.07,0.23,0.13,0.49,0.2
			c0.26,0.07,0.45,0.14,0.58,0.22c0.12,0.08,0.22,0.18,0.29,0.31c0.07,0.13,0.11,0.29,0.11,0.48c0,0.17-0.04,0.34-0.13,0.49
			c-0.08,0.15-0.2,0.26-0.36,0.34c-0.15,0.07-0.35,0.11-0.58,0.11c-0.34,0-0.59-0.09-0.77-0.26
			C60.23,146.38,60.12,146.12,60.08,145.78L60.08,145.78z M62.59,145.27c0-0.31,0.04-0.57,0.12-0.78c0.06-0.15,0.14-0.29,0.25-0.42
			c0.1-0.12,0.22-0.21,0.34-0.27c0.17-0.08,0.36-0.12,0.57-0.12c0.39,0,0.7,0.14,0.94,0.42c0.24,0.28,0.35,0.66,0.35,1.16
			c0,0.49-0.12,0.87-0.35,1.15c-0.23,0.28-0.55,0.41-0.93,0.41c-0.4,0-0.71-0.14-0.94-0.41C62.7,146.13,62.59,145.75,62.59,145.27
			L62.59,145.27z M63.14,145.25c0,0.34,0.07,0.6,0.21,0.78c0.14,0.18,0.32,0.27,0.53,0.27c0.21,0,0.39-0.09,0.53-0.26
			c0.14-0.18,0.21-0.44,0.21-0.79c0-0.35-0.07-0.61-0.2-0.78c-0.13-0.17-0.31-0.26-0.53-0.26c-0.22,0-0.4,0.09-0.54,0.26
			C63.21,144.64,63.14,144.9,63.14,145.25L63.14,145.25z M67.97,146.76h-0.58l-0.23-0.69H66.1l-0.22,0.69h-0.57l1.03-3.03h0.57
			L67.97,146.76L67.97,146.76z M66.99,145.56l-0.37-1.12l-0.36,1.12H66.99L66.99,145.56z M68.27,146.76v-3h0.54v2.49h1.33v0.51
			H68.27L68.27,146.76z M11.45,153.02v-3.03h0.81l0.48,2.06l0.47-2.06h0.81v3.03h-0.5l0-2.38l-0.52,2.38h-0.52l-0.52-2.38l0,2.38
			H11.45L11.45,153.02z M16.94,153.02h-0.58l-0.23-0.69h-1.07l-0.22,0.69h-0.57l1.03-3.03h0.57L16.94,153.02L16.94,153.02z
			 M15.96,151.82l-0.37-1.12l-0.36,1.12H15.96L15.96,151.82z M17.23,153.02v-3.03h0.52l1.09,2.03v-2.03h0.5v3.03H18.8l-1.08-1.99
			v1.99H17.23L17.23,153.02z M20.5,153.02v-2.51h-0.79v-0.51h2.11v0.51h-0.78v2.51H20.5L20.5,153.02z M22.17,153.02v-3.03h1.97v0.51
			h-1.43v0.67h1.33v0.51h-1.33v0.82h1.48v0.51H22.17L22.17,153.02z M22.58,149.72l0.38-0.61h0.47l0.38,0.61H23.4l-0.21-0.31
			l-0.19,0.31H22.58L22.58,149.72z M24.58,152.21v-0.58h1v0.58H24.58L24.58,152.21z M25.89,153.02v-3h0.54v2.49h1.33v0.51H25.89
			L25.89,153.02z M28.03,151.52c0-0.31,0.04-0.57,0.12-0.78c0.06-0.15,0.14-0.29,0.25-0.42c0.1-0.12,0.22-0.21,0.34-0.27
			c0.17-0.08,0.36-0.12,0.57-0.12c0.39,0,0.7,0.14,0.94,0.42c0.23,0.28,0.35,0.66,0.35,1.16c0,0.49-0.12,0.87-0.35,1.15
			c-0.23,0.28-0.55,0.41-0.93,0.41c-0.4,0-0.71-0.14-0.94-0.41C28.15,152.39,28.03,152.01,28.03,151.52L28.03,151.52z M28.59,151.5
			c0,0.34,0.07,0.6,0.21,0.78c0.14,0.18,0.32,0.27,0.53,0.27c0.21,0,0.39-0.09,0.53-0.26c0.14-0.18,0.21-0.44,0.21-0.79
			c0-0.35-0.07-0.61-0.2-0.78c-0.13-0.17-0.31-0.26-0.53-0.26c-0.22,0-0.4,0.09-0.54,0.26C28.65,150.9,28.59,151.16,28.59,151.5
			L28.59,151.5z M32.06,153.02v-3.03h0.52l1.09,2.03v-2.03h0.5v3.03h-0.54l-1.08-1.99v1.99H32.06L32.06,153.02z M37.13,153.02h-0.58
			l-0.23-0.69h-1.07l-0.22,0.69h-0.57l1.03-3.03h0.57L37.13,153.02L37.13,153.02z M36.15,151.82l-0.37-1.12l-0.36,1.12H36.15
			L36.15,151.82z M40.56,153.02h-0.58l-0.23-0.69h-1.07l-0.22,0.69H37.9l1.03-3.03h0.57L40.56,153.02L40.56,153.02z M39.58,151.82
			l-0.37-1.12l-0.36,1.12H39.58L39.58,151.82z M40.86,153.02v-3h0.54v2.49h1.33v0.51H40.86L40.86,153.02z M43.44,153.02h0.54v-2.51
			h0.78v-0.51h-2.11v0.51h0.79V153.02L43.44,153.02z M45.1,149.99h0.54v1.64c0,0.26,0.01,0.43,0.02,0.51
			c0.02,0.12,0.08,0.22,0.16,0.3c0.09,0.08,0.2,0.11,0.35,0.11c0.15,0,0.26-0.04,0.34-0.11c0.08-0.07,0.12-0.16,0.14-0.26
			c0.02-0.1,0.02-0.27,0.02-0.51v-1.67h0.54v1.59c0,0.36-0.01,0.62-0.04,0.77c-0.03,0.15-0.08,0.28-0.16,0.38
			c-0.08,0.1-0.18,0.19-0.31,0.25c-0.13,0.06-0.3,0.09-0.51,0.09c-0.25,0-0.44-0.03-0.57-0.1c-0.13-0.07-0.23-0.15-0.31-0.26
			c-0.08-0.11-0.13-0.22-0.15-0.34c-0.04-0.17-0.05-0.43-0.05-0.77V149.99L45.1,149.99z M47.78,153.02v-3.03h1.13
			c0.28,0,0.49,0.03,0.62,0.08c0.13,0.05,0.23,0.15,0.31,0.29c0.08,0.14,0.12,0.3,0.12,0.48c0,0.23-0.06,0.42-0.17,0.56
			c-0.12,0.15-0.29,0.24-0.52,0.28c0.12,0.08,0.21,0.16,0.29,0.25c0.08,0.09,0.18,0.26,0.3,0.49l0.32,0.59h-0.64l-0.38-0.66
			c-0.14-0.23-0.23-0.38-0.28-0.44c-0.05-0.06-0.1-0.1-0.16-0.13c-0.06-0.02-0.15-0.03-0.27-0.03h-0.11v1.26H47.78L47.78,153.02z
			 M48.32,151.27h0.4c0.26,0,0.42-0.01,0.48-0.04c0.06-0.02,0.11-0.07,0.15-0.13c0.04-0.06,0.05-0.14,0.05-0.23
			c0-0.1-0.02-0.18-0.07-0.25c-0.05-0.06-0.12-0.1-0.2-0.12c-0.04-0.01-0.17-0.01-0.39-0.01h-0.42V151.27L48.32,151.27z
			 M52.85,153.02h-0.58l-0.23-0.69h-1.07l-0.22,0.69h-0.57l1.03-3.03h0.57L52.85,153.02L52.85,153.02z M51.87,151.82l-0.37-1.12
			l-0.36,1.12H51.87L51.87,151.82z M54.03,149.99h0.98c0.22,0,0.39,0.02,0.5,0.06c0.15,0.05,0.29,0.15,0.4,0.28
			c0.11,0.13,0.2,0.3,0.25,0.49c0.06,0.19,0.09,0.43,0.09,0.71c0,0.25-0.03,0.46-0.08,0.64c-0.07,0.22-0.16,0.4-0.28,0.53
			c-0.09,0.1-0.22,0.18-0.38,0.24c-0.12,0.04-0.28,0.06-0.47,0.06h-1.01V149.99L54.03,149.99z M54.57,150.51v2h0.4
			c0.15,0,0.26-0.01,0.32-0.03c0.09-0.02,0.16-0.07,0.22-0.13c0.06-0.06,0.1-0.16,0.14-0.29c0.04-0.14,0.05-0.32,0.05-0.55
			c0-0.23-0.02-0.41-0.05-0.54c-0.04-0.13-0.09-0.22-0.15-0.29c-0.06-0.07-0.15-0.12-0.25-0.14c-0.07-0.02-0.22-0.03-0.44-0.03
			H54.57L54.57,150.51z M56.6,151.52c0-0.31,0.04-0.57,0.12-0.78c0.06-0.15,0.14-0.29,0.25-0.42c0.1-0.12,0.22-0.21,0.34-0.27
			c0.17-0.08,0.36-0.12,0.57-0.12c0.39,0,0.7,0.14,0.94,0.42c0.24,0.28,0.35,0.66,0.35,1.16c0,0.49-0.12,0.87-0.35,1.15
			c-0.23,0.28-0.55,0.41-0.93,0.41c-0.4,0-0.71-0.14-0.94-0.41C56.71,152.39,56.6,152.01,56.6,151.52L56.6,151.52z M57.15,151.5
			c0,0.34,0.07,0.6,0.21,0.78c0.14,0.18,0.32,0.27,0.53,0.27c0.21,0,0.39-0.09,0.53-0.26c0.14-0.18,0.21-0.44,0.21-0.79
			c0-0.35-0.07-0.61-0.2-0.78c-0.13-0.17-0.31-0.26-0.53-0.26c-0.22,0-0.4,0.09-0.54,0.26C57.22,150.9,57.15,151.16,57.15,151.5
			L57.15,151.5z M61.22,153.02v-2.51h-0.79v-0.51h2.11v0.51h-0.78v2.51H61.22L61.22,153.02z M62.78,151.52
			c0-0.31,0.04-0.57,0.12-0.78c0.06-0.15,0.14-0.29,0.25-0.42c0.1-0.12,0.22-0.21,0.34-0.27c0.17-0.08,0.36-0.12,0.57-0.12
			c0.39,0,0.7,0.14,0.94,0.42c0.24,0.28,0.35,0.66,0.35,1.16c0,0.49-0.12,0.87-0.35,1.15c-0.23,0.28-0.55,0.41-0.93,0.41
			c-0.4,0-0.71-0.14-0.94-0.41C62.89,152.39,62.78,152.01,62.78,151.52L62.78,151.52z M63.33,151.5c0,0.34,0.07,0.6,0.21,0.78
			c0.14,0.18,0.32,0.27,0.53,0.27c0.21,0,0.39-0.09,0.53-0.26c0.14-0.18,0.21-0.44,0.21-0.79c0-0.35-0.07-0.61-0.2-0.78
			c-0.13-0.17-0.31-0.26-0.53-0.26c-0.22,0-0.4,0.09-0.54,0.26C63.4,150.9,63.33,151.16,63.33,151.5L63.33,151.5z M63.75,149.72
			L64,149.1h0.57l-0.5,0.62H63.75L63.75,149.72z M65.77,153.02v-3.03h1.13c0.28,0,0.49,0.03,0.62,0.08
			c0.13,0.05,0.23,0.15,0.31,0.29c0.08,0.14,0.12,0.3,0.12,0.48c0,0.23-0.06,0.42-0.17,0.56c-0.12,0.15-0.29,0.24-0.52,0.28
			c0.12,0.08,0.21,0.16,0.29,0.25c0.08,0.09,0.18,0.26,0.3,0.49l0.32,0.59h-0.64l-0.38-0.66c-0.14-0.23-0.23-0.38-0.28-0.44
			c-0.05-0.06-0.1-0.1-0.16-0.13c-0.06-0.02-0.15-0.03-0.27-0.03h-0.11v1.26H65.77L65.77,153.02z M66.31,151.27h0.4
			c0.26,0,0.42-0.01,0.48-0.04c0.06-0.02,0.11-0.07,0.15-0.13c0.04-0.06,0.05-0.14,0.05-0.23c0-0.1-0.02-0.18-0.07-0.25
			c-0.05-0.06-0.11-0.1-0.2-0.12c-0.04-0.01-0.17-0.01-0.39-0.01h-0.42V151.27L66.31,151.27z M70.84,153.02h-0.58l-0.23-0.69h-1.07
			l-0.22,0.69h-0.57l1.03-3.03h0.57L70.84,153.02L70.84,153.02z M69.86,151.82l-0.37-1.12l-0.36,1.12H69.86L69.86,151.82z
			 M70.86,153.02l0.92-1.58l-0.83-1.45h0.63l0.52,0.9l0.52-0.9h0.63l-0.83,1.45l0.92,1.58h-0.64l-0.59-1.02l-0.59,1.02H70.86
			L70.86,153.02z M74.63,153.02v-3.03h0.86c0.33,0,0.54,0.01,0.64,0.04c0.15,0.05,0.28,0.14,0.38,0.3c0.1,0.15,0.15,0.35,0.15,0.59
			c0,0.19-0.03,0.34-0.09,0.47c-0.06,0.13-0.13,0.23-0.22,0.3c-0.09,0.07-0.18,0.12-0.28,0.14c-0.13,0.03-0.31,0.04-0.56,0.04h-0.35
			v1.14H74.63L74.63,153.02z M75.17,150.51v0.86h0.29c0.21,0,0.35-0.02,0.42-0.05c0.07-0.03,0.13-0.08,0.17-0.15
			c0.04-0.07,0.06-0.15,0.06-0.24c0-0.11-0.03-0.2-0.08-0.27c-0.06-0.07-0.13-0.12-0.21-0.14c-0.06-0.01-0.19-0.02-0.38-0.02H75.17
			L75.17,150.51z M79.22,153.02l-1.06-3.03h-0.57l-1.03,3.03h0.57l0.22-0.69h1.07l0.23,0.69H79.22L79.22,153.02z M78.24,151.82
			h-0.73l0.36-1.12L78.24,151.82L78.24,151.82z M79.51,153.02v-3.03h1.13c0.28,0,0.49,0.03,0.62,0.08c0.13,0.05,0.23,0.15,0.31,0.29
			c0.08,0.14,0.12,0.3,0.12,0.48c0,0.23-0.06,0.42-0.17,0.56c-0.12,0.15-0.29,0.24-0.52,0.28c0.12,0.08,0.21,0.16,0.29,0.25
			c0.08,0.09,0.18,0.26,0.3,0.49l0.32,0.59h-0.64l-0.38-0.66c-0.14-0.23-0.23-0.38-0.28-0.44c-0.05-0.06-0.1-0.1-0.16-0.13
			c-0.06-0.02-0.15-0.03-0.27-0.03h-0.11v1.26H79.51L79.51,153.02z M80.05,151.27h0.4c0.26,0,0.42-0.01,0.48-0.04
			c0.06-0.02,0.11-0.07,0.15-0.13c0.04-0.06,0.05-0.14,0.05-0.23c0-0.1-0.02-0.18-0.07-0.25c-0.05-0.06-0.11-0.1-0.2-0.12
			c-0.04-0.01-0.17-0.01-0.39-0.01h-0.42V151.27L80.05,151.27z M84.58,153.02H84l-0.23-0.69h-1.07l-0.22,0.69h-0.57l1.03-3.03h0.57
			L84.58,153.02L84.58,153.02z M83.6,151.82l-0.37-1.12l-0.36,1.12H83.6L83.6,151.82z M87.46,151.9l0.52,0.18
			c-0.08,0.33-0.21,0.58-0.4,0.74c-0.19,0.16-0.42,0.24-0.71,0.24c-0.35,0-0.64-0.14-0.87-0.41c-0.23-0.27-0.34-0.65-0.34-1.13
			c0-0.5,0.11-0.9,0.34-1.17c0.23-0.28,0.53-0.42,0.9-0.42c0.32,0,0.59,0.11,0.79,0.33c0.12,0.13,0.21,0.32,0.27,0.56l-0.53,0.14
			c-0.03-0.16-0.1-0.28-0.2-0.37c-0.1-0.09-0.22-0.14-0.36-0.14c-0.2,0-0.36,0.08-0.48,0.24c-0.12,0.16-0.18,0.42-0.18,0.78
			c0,0.38,0.06,0.65,0.18,0.82c0.12,0.16,0.28,0.24,0.47,0.24c0.14,0,0.27-0.05,0.37-0.16C87.34,152.29,87.41,152.13,87.46,151.9
			L87.46,151.9z M88.42,153.02v-3.03h0.54v3.03H88.42L88.42,153.02z M89.47,153.02v-3.03h1.13c0.28,0,0.49,0.03,0.62,0.08
			c0.13,0.05,0.23,0.15,0.31,0.29c0.08,0.14,0.12,0.3,0.12,0.48c0,0.23-0.06,0.42-0.17,0.56c-0.12,0.15-0.29,0.24-0.52,0.28
			c0.12,0.08,0.21,0.16,0.29,0.25c0.08,0.09,0.18,0.26,0.3,0.49l0.32,0.59h-0.64l-0.38-0.66c-0.14-0.23-0.23-0.38-0.28-0.44
			c-0.05-0.06-0.1-0.1-0.16-0.13c-0.06-0.02-0.15-0.03-0.27-0.03h-0.11v1.26H89.47L89.47,153.02z M90.01,151.27h0.4
			c0.26,0,0.42-0.01,0.48-0.04c0.06-0.02,0.11-0.07,0.15-0.13c0.04-0.06,0.05-0.14,0.05-0.23c0-0.1-0.02-0.18-0.07-0.25
			c-0.05-0.06-0.12-0.1-0.2-0.12c-0.04-0.01-0.17-0.01-0.39-0.01h-0.42V151.27L90.01,151.27z M93.84,151.9l0.52,0.18
			c-0.08,0.33-0.21,0.58-0.4,0.74c-0.19,0.16-0.42,0.24-0.71,0.24c-0.35,0-0.64-0.14-0.87-0.41c-0.23-0.27-0.34-0.65-0.34-1.13
			c0-0.5,0.11-0.9,0.34-1.17c0.23-0.28,0.53-0.42,0.9-0.42c0.33,0,0.59,0.11,0.79,0.33c0.12,0.13,0.21,0.32,0.27,0.56l-0.53,0.14
			c-0.03-0.16-0.1-0.28-0.2-0.37c-0.1-0.09-0.22-0.14-0.36-0.14c-0.2,0-0.36,0.08-0.48,0.24c-0.12,0.16-0.18,0.42-0.18,0.78
			c0,0.38,0.06,0.65,0.18,0.82c0.12,0.16,0.28,0.24,0.47,0.24c0.14,0,0.27-0.05,0.37-0.16C93.73,152.29,93.8,152.13,93.84,151.9
			L93.84,151.9z M94.82,149.99h0.54v1.64c0,0.26,0.01,0.43,0.02,0.51c0.02,0.12,0.08,0.22,0.16,0.3c0.09,0.08,0.2,0.11,0.35,0.11
			c0.15,0,0.26-0.04,0.34-0.11c0.08-0.07,0.12-0.16,0.14-0.26c0.02-0.1,0.02-0.27,0.02-0.51v-1.67h0.54v1.59
			c0,0.36-0.01,0.62-0.04,0.77c-0.03,0.15-0.08,0.28-0.16,0.38c-0.08,0.1-0.18,0.19-0.31,0.25c-0.13,0.06-0.3,0.09-0.51,0.09
			c-0.25,0-0.44-0.03-0.57-0.1c-0.13-0.07-0.23-0.15-0.31-0.26c-0.08-0.11-0.13-0.22-0.15-0.34c-0.03-0.17-0.05-0.43-0.05-0.77
			V149.99L94.82,149.99z M97.52,153.02v-3h0.54v2.49h1.33v0.51H97.52L97.52,153.02z M102.16,153.02h-0.58l-0.23-0.69h-1.07
			l-0.22,0.69H99.5l1.03-3.03h0.57L102.16,153.02L102.16,153.02z M101.18,151.82l-0.37-1.12l-0.36,1.12H101.18L101.18,151.82z
			 M104.14,151.9l0.52,0.18c-0.08,0.33-0.21,0.58-0.4,0.74c-0.19,0.16-0.42,0.24-0.71,0.24c-0.35,0-0.64-0.14-0.87-0.41
			c-0.23-0.27-0.34-0.65-0.34-1.13c0-0.5,0.11-0.9,0.34-1.17c0.23-0.28,0.53-0.42,0.9-0.42c0.33,0,0.59,0.11,0.79,0.33
			c0.12,0.13,0.21,0.32,0.27,0.56l-0.53,0.14c-0.03-0.16-0.1-0.28-0.2-0.37c-0.1-0.09-0.22-0.14-0.36-0.14
			c-0.2,0-0.36,0.08-0.48,0.24c-0.12,0.16-0.18,0.42-0.18,0.78c0,0.38,0.06,0.65,0.18,0.82c0.12,0.16,0.28,0.24,0.47,0.24
			c0.14,0,0.27-0.05,0.37-0.16C104.02,152.29,104.1,152.13,104.14,151.9L104.14,151.9z M102.98,153.83c0.08,0.02,0.2,0.03,0.35,0.03
			c0.22,0,0.39-0.05,0.5-0.15c0.09-0.08,0.13-0.17,0.13-0.3c0-0.11-0.04-0.2-0.12-0.28c-0.08-0.08-0.19-0.11-0.34-0.11
			c-0.11,0-0.21,0.02-0.3,0.06l-0.05,0.2c0.08-0.03,0.16-0.04,0.24-0.04c0.08,0,0.14,0.02,0.17,0.05c0.04,0.03,0.06,0.08,0.06,0.12
			c0,0.05-0.02,0.1-0.06,0.13c-0.05,0.04-0.13,0.07-0.24,0.07c-0.1,0-0.22-0.01-0.34-0.02V153.83L102.98,153.83z M107.52,153.02
			h-0.58l-0.23-0.69h-1.07l-0.22,0.69h-0.57l1.03-3.03h0.57L107.52,153.02L107.52,153.02z M106.53,151.82l-0.37-1.12l-0.36,1.12
			H106.53L106.53,151.82z M105.8,149.72h-0.23c0-0.03,0-0.06,0-0.07c0-0.14,0.03-0.26,0.09-0.33c0.06-0.08,0.14-0.12,0.24-0.12
			c0.04,0,0.08,0,0.12,0.02c0.04,0.01,0.1,0.04,0.2,0.09c0.1,0.05,0.17,0.07,0.23,0.07c0.04,0,0.07-0.01,0.1-0.04
			c0.03-0.03,0.04-0.07,0.05-0.14h0.23c0,0.19-0.03,0.32-0.09,0.4c-0.06,0.08-0.14,0.12-0.23,0.12c-0.04,0-0.08,0-0.12-0.01
			c-0.03-0.01-0.1-0.04-0.21-0.09c-0.11-0.05-0.19-0.07-0.24-0.07c-0.04,0-0.07,0.01-0.09,0.04
			C105.81,149.61,105.8,149.66,105.8,149.72L105.8,149.72z M107.69,151.52c0-0.31,0.04-0.57,0.12-0.78
			c0.06-0.15,0.14-0.29,0.25-0.42c0.1-0.12,0.22-0.21,0.34-0.27c0.17-0.08,0.36-0.12,0.57-0.12c0.39,0,0.7,0.14,0.94,0.42
			c0.23,0.28,0.35,0.66,0.35,1.16c0,0.49-0.12,0.87-0.35,1.15c-0.23,0.28-0.55,0.41-0.94,0.41c-0.39,0-0.71-0.14-0.94-0.41
			C107.81,152.39,107.69,152.01,107.69,151.52L107.69,151.52z M108.24,151.5c0,0.34,0.07,0.6,0.21,0.78
			c0.14,0.18,0.32,0.27,0.53,0.27c0.21,0,0.39-0.09,0.53-0.26c0.14-0.18,0.21-0.44,0.21-0.79c0-0.35-0.07-0.61-0.2-0.78
			c-0.13-0.17-0.31-0.26-0.53-0.26c-0.22,0-0.4,0.09-0.54,0.26C108.31,150.9,108.24,151.16,108.24,151.5L108.24,151.5z
			 M111.72,153.02v-3.03h0.52l1.09,2.03v-2.03h0.5v3.03h-0.54l-1.08-1.99v1.99H111.72L111.72,153.02z M116.79,153.02h-0.58
			l-0.23-0.69h-1.06l-0.22,0.69h-0.57l1.03-3.03h0.57L116.79,153.02L116.79,153.02z M115.8,151.82l-0.37-1.12l-0.36,1.12H115.8
			L115.8,151.82z M117.96,153.02v-3.03h1.97v0.51h-1.43v0.67h1.33v0.51h-1.33v0.82h1.48v0.51H117.96L117.96,153.02z M120.43,153.02
			v-3.03h0.81l0.48,2.06l0.47-2.06h0.81v3.03h-0.5l0-2.38l-0.52,2.38h-0.52l-0.52-2.38l0,2.38H120.43z"/>
		<path class="st8" d="M123.53,153.02v-3.03h0.86c0.33,0,0.54,0.01,0.64,0.04c0.15,0.05,0.28,0.14,0.38,0.3
			c0.1,0.15,0.15,0.35,0.15,0.59c0,0.19-0.03,0.34-0.09,0.47c-0.06,0.13-0.13,0.23-0.22,0.3c-0.09,0.07-0.18,0.12-0.28,0.14
			c-0.13,0.03-0.31,0.04-0.56,0.04h-0.35v1.14H123.53L123.53,153.02z M124.07,150.51v0.86h0.29c0.21,0,0.35-0.02,0.42-0.05
			c0.07-0.03,0.13-0.08,0.17-0.15c0.04-0.07,0.06-0.15,0.06-0.24c0-0.11-0.03-0.2-0.08-0.27c-0.06-0.07-0.13-0.12-0.22-0.14
			c-0.06-0.01-0.19-0.02-0.38-0.02H124.07L124.07,150.51z M126,153.02v-3.03h1.13c0.28,0,0.49,0.03,0.62,0.08
			c0.13,0.05,0.23,0.15,0.31,0.29c0.08,0.14,0.12,0.3,0.12,0.48c0,0.23-0.06,0.42-0.17,0.56c-0.12,0.15-0.29,0.24-0.52,0.28
			c0.12,0.08,0.21,0.16,0.29,0.25c0.08,0.09,0.18,0.26,0.3,0.49l0.32,0.59h-0.64l-0.38-0.66c-0.14-0.23-0.23-0.38-0.28-0.44
			c-0.05-0.06-0.1-0.1-0.16-0.13c-0.06-0.02-0.15-0.03-0.27-0.03h-0.11v1.26H126L126,153.02z M126.54,151.27h0.4
			c0.26,0,0.42-0.01,0.48-0.04c0.06-0.02,0.11-0.07,0.15-0.13c0.04-0.06,0.05-0.14,0.05-0.23c0-0.1-0.02-0.18-0.07-0.25
			c-0.05-0.06-0.12-0.1-0.2-0.12c-0.04-0.01-0.17-0.01-0.39-0.01h-0.42V151.27L126.54,151.27z M128.68,153.02v-3.03h1.97v0.51h-1.43
			v0.67h1.33v0.51h-1.33v0.82h1.48v0.51H128.68L128.68,153.02z M131.01,152.04l0.52-0.06c0.03,0.2,0.09,0.35,0.19,0.44
			c0.1,0.09,0.23,0.14,0.39,0.14c0.17,0,0.3-0.04,0.39-0.12c0.09-0.08,0.13-0.18,0.13-0.29c0-0.07-0.02-0.13-0.06-0.18
			c-0.04-0.05-0.1-0.09-0.19-0.13c-0.06-0.03-0.2-0.07-0.43-0.13c-0.29-0.08-0.49-0.18-0.6-0.3c-0.16-0.17-0.24-0.37-0.24-0.61
			c0-0.15,0.04-0.3,0.11-0.43c0.08-0.13,0.19-0.24,0.33-0.31c0.14-0.07,0.32-0.11,0.52-0.11c0.33,0,0.58,0.08,0.75,0.25
			c0.17,0.17,0.26,0.39,0.26,0.67l-0.54,0.02c-0.02-0.16-0.07-0.27-0.15-0.34c-0.08-0.07-0.19-0.1-0.34-0.1
			c-0.15,0-0.28,0.04-0.36,0.11c-0.06,0.05-0.09,0.11-0.09,0.19c0,0.07,0.03,0.13,0.08,0.18c0.07,0.07,0.23,0.13,0.49,0.2
			c0.26,0.07,0.45,0.14,0.58,0.22c0.12,0.08,0.22,0.18,0.29,0.31c0.07,0.13,0.11,0.29,0.11,0.48c0,0.17-0.04,0.34-0.13,0.49
			c-0.08,0.15-0.2,0.26-0.36,0.34c-0.15,0.07-0.35,0.11-0.58,0.11c-0.34,0-0.59-0.09-0.77-0.26
			C131.15,152.63,131.05,152.38,131.01,152.04L131.01,152.04z M136.02,153.02h-0.58l-0.23-0.69h-1.07l-0.22,0.69h-0.57l1.03-3.03
			h0.57L136.02,153.02L136.02,153.02z M135.03,151.82l-0.37-1.12l-0.36,1.12H135.03L135.03,151.82z M136.29,152.44h0.51v0.41
			c0,0.17-0.01,0.3-0.04,0.4c-0.03,0.1-0.07,0.18-0.14,0.26c-0.07,0.08-0.16,0.14-0.27,0.18l-0.1-0.24c0.1-0.04,0.17-0.09,0.22-0.16
			c0.04-0.07,0.07-0.16,0.07-0.28h-0.24V152.44L136.29,152.44z M11.46,156.25h0.98c0.22,0,0.39,0.02,0.5,0.06
			c0.15,0.05,0.29,0.15,0.4,0.28c0.11,0.13,0.2,0.3,0.25,0.49c0.06,0.19,0.09,0.43,0.09,0.71c0,0.25-0.03,0.46-0.08,0.64
			c-0.07,0.22-0.16,0.4-0.28,0.53c-0.09,0.1-0.22,0.18-0.38,0.24c-0.12,0.04-0.28,0.06-0.47,0.06h-1.01V156.25L11.46,156.25z
			 M12,156.76v2h0.4c0.15,0,0.26-0.01,0.32-0.03c0.09-0.02,0.16-0.07,0.22-0.13c0.06-0.06,0.1-0.16,0.14-0.29
			c0.04-0.14,0.05-0.32,0.05-0.55s-0.02-0.41-0.05-0.54c-0.04-0.13-0.09-0.22-0.15-0.29c-0.06-0.07-0.15-0.12-0.25-0.14
			c-0.07-0.02-0.22-0.03-0.44-0.03H12L12,156.76z M14.14,159.28v-3.03h1.97v0.51h-1.43v0.67H16v0.51h-1.33v0.82h1.48v0.51H14.14
			L14.14,159.28z M17.29,159.28l-0.95-3.03h0.58l0.67,2.24l0.65-2.24h0.57l-0.94,3.03H17.29L17.29,159.28z M18.97,157.78
			c0-0.31,0.04-0.57,0.12-0.78c0.06-0.15,0.14-0.29,0.25-0.42c0.1-0.12,0.22-0.21,0.34-0.27c0.17-0.08,0.36-0.12,0.57-0.12
			c0.39,0,0.7,0.14,0.94,0.42c0.23,0.28,0.35,0.66,0.35,1.16c0,0.49-0.12,0.87-0.35,1.15c-0.23,0.28-0.55,0.41-0.93,0.41
			c-0.4,0-0.71-0.14-0.94-0.41C19.09,158.65,18.97,158.27,18.97,157.78L18.97,157.78z M19.53,157.76c0,0.34,0.07,0.6,0.21,0.78
			c0.14,0.18,0.32,0.27,0.53,0.27c0.21,0,0.39-0.09,0.53-0.26c0.14-0.18,0.21-0.44,0.21-0.79c0-0.35-0.07-0.61-0.2-0.78
			c-0.13-0.17-0.31-0.26-0.53-0.26c-0.22,0-0.4,0.09-0.54,0.26C19.6,157.15,19.53,157.41,19.53,157.76L19.53,157.76z M21.99,159.28
			v-3h0.54v2.49h1.33v0.51H21.99L21.99,159.28z M24.64,159.28h0.58l0.94-3.03h-0.57l-0.65,2.24l-0.67-2.24h-0.58L24.64,159.28
			L24.64,159.28z M26.43,159.28v-3.03h1.97v0.51h-1.43v0.67h1.33v0.51h-1.33v0.82h1.48v0.51H26.43L26.43,159.28z M28.91,159.28
			v-3.03h1.13c0.28,0,0.49,0.03,0.62,0.08c0.13,0.05,0.23,0.15,0.31,0.29c0.08,0.14,0.12,0.3,0.12,0.48c0,0.23-0.06,0.42-0.17,0.56
			c-0.12,0.15-0.29,0.24-0.52,0.28c0.12,0.08,0.21,0.16,0.29,0.25c0.08,0.09,0.18,0.26,0.3,0.49l0.32,0.59h-0.64l-0.38-0.66
			c-0.14-0.23-0.23-0.38-0.28-0.44c-0.05-0.06-0.1-0.1-0.16-0.13c-0.06-0.02-0.15-0.03-0.27-0.03h-0.11v1.26H28.91L28.91,159.28z
			 M29.45,157.53h0.4c0.26,0,0.42-0.01,0.48-0.04c0.06-0.02,0.11-0.07,0.15-0.13c0.04-0.06,0.05-0.14,0.05-0.23
			c0-0.1-0.02-0.18-0.07-0.25c-0.05-0.06-0.12-0.1-0.2-0.12c-0.04-0.01-0.17-0.01-0.39-0.01h-0.42V157.53L29.45,157.53z
			 M34.87,159.28h-0.58l-0.23-0.69H33l-0.22,0.69h-0.57l1.03-3.03h0.57L34.87,159.28L34.87,159.28z M33.89,158.08l-0.37-1.12
			l-0.36,1.12H33.89L33.89,158.08z M35.04,157.78c0-0.31,0.04-0.57,0.12-0.78c0.06-0.15,0.14-0.29,0.25-0.42
			c0.1-0.12,0.22-0.21,0.34-0.27c0.17-0.08,0.36-0.12,0.57-0.12c0.39,0,0.7,0.14,0.94,0.42c0.24,0.28,0.35,0.66,0.35,1.16
			c0,0.49-0.12,0.87-0.35,1.15c-0.23,0.28-0.55,0.41-0.93,0.41c-0.4,0-0.71-0.14-0.94-0.41C35.16,158.65,35.04,158.27,35.04,157.78
			L35.04,157.78z M35.6,157.76c0,0.34,0.07,0.6,0.21,0.78c0.14,0.18,0.32,0.27,0.53,0.27c0.21,0,0.39-0.09,0.53-0.26
			c0.14-0.18,0.21-0.44,0.21-0.79c0-0.35-0.07-0.61-0.2-0.78c-0.13-0.17-0.31-0.26-0.53-0.26c-0.22,0-0.4,0.09-0.54,0.26
			C35.67,157.15,35.6,157.41,35.6,157.76L35.6,157.76z M38.93,158.3l0.52-0.06c0.03,0.2,0.09,0.35,0.19,0.44
			c0.1,0.09,0.22,0.14,0.39,0.14c0.17,0,0.3-0.04,0.39-0.12c0.09-0.08,0.13-0.18,0.13-0.29c0-0.07-0.02-0.13-0.06-0.18
			c-0.04-0.05-0.1-0.09-0.19-0.13c-0.06-0.03-0.2-0.07-0.43-0.13c-0.29-0.08-0.49-0.18-0.6-0.3c-0.16-0.17-0.24-0.37-0.24-0.61
			c0-0.15,0.04-0.3,0.11-0.43c0.08-0.13,0.19-0.24,0.33-0.31c0.14-0.07,0.32-0.11,0.52-0.11c0.33,0,0.58,0.08,0.75,0.25
			c0.17,0.17,0.26,0.39,0.26,0.67l-0.54,0.02c-0.02-0.16-0.07-0.27-0.15-0.34c-0.07-0.07-0.19-0.1-0.34-0.1
			c-0.15,0-0.28,0.04-0.36,0.11c-0.06,0.05-0.08,0.11-0.08,0.19c0,0.07,0.03,0.13,0.08,0.18c0.07,0.07,0.23,0.13,0.49,0.2
			c0.26,0.07,0.45,0.14,0.58,0.22c0.12,0.08,0.22,0.18,0.29,0.31c0.07,0.13,0.11,0.29,0.11,0.48c0,0.17-0.04,0.34-0.13,0.49
			c-0.08,0.15-0.2,0.26-0.36,0.34c-0.15,0.07-0.35,0.11-0.58,0.11c-0.34,0-0.59-0.09-0.77-0.26
			C39.07,158.89,38.97,158.63,38.93,158.3L38.93,158.3z M41.54,159.28v-3.03h1.97v0.51h-1.43v0.67h1.33v0.51h-1.33v0.82h1.48v0.51
			H41.54L41.54,159.28z M44.61,159.28v-2.51h-0.79v-0.51h2.11v0.51h-0.78v2.51H44.61L44.61,159.28z M46.1,157.78
			c0-0.31,0.04-0.57,0.12-0.78c0.06-0.15,0.14-0.29,0.25-0.42c0.1-0.12,0.22-0.21,0.34-0.27c0.17-0.08,0.36-0.12,0.57-0.12
			c0.39,0,0.7,0.14,0.94,0.42c0.24,0.28,0.35,0.66,0.35,1.16c0,0.49-0.12,0.87-0.35,1.15c-0.23,0.28-0.55,0.41-0.93,0.41
			c-0.4,0-0.71-0.14-0.94-0.41C46.22,158.65,46.1,158.27,46.1,157.78L46.1,157.78z M46.66,157.76c0,0.34,0.07,0.6,0.21,0.78
			c0.14,0.18,0.32,0.27,0.53,0.27c0.21,0,0.39-0.09,0.53-0.26c0.14-0.18,0.21-0.44,0.21-0.79c0-0.35-0.07-0.61-0.2-0.78
			c-0.13-0.17-0.31-0.26-0.53-0.26c-0.22,0-0.4,0.09-0.54,0.26C46.73,157.15,46.66,157.41,46.66,157.76L46.66,157.76z M49.1,159.28
			v-3.03h1.13c0.28,0,0.49,0.03,0.62,0.08c0.13,0.05,0.23,0.15,0.31,0.29c0.08,0.14,0.12,0.3,0.12,0.48c0,0.23-0.06,0.42-0.17,0.56
			c-0.12,0.15-0.29,0.24-0.52,0.28c0.12,0.08,0.21,0.16,0.29,0.25c0.08,0.09,0.18,0.26,0.3,0.49l0.32,0.59h-0.64l-0.38-0.66
			c-0.14-0.23-0.23-0.38-0.28-0.44c-0.05-0.06-0.1-0.1-0.16-0.13c-0.06-0.02-0.15-0.03-0.27-0.03h-0.11v1.26H49.1L49.1,159.28z
			 M49.64,157.53h0.4c0.26,0,0.42-0.01,0.48-0.04c0.06-0.02,0.11-0.07,0.15-0.13c0.04-0.06,0.05-0.14,0.05-0.23
			c0-0.1-0.02-0.18-0.07-0.25c-0.05-0.06-0.12-0.1-0.2-0.12c-0.04-0.01-0.17-0.01-0.39-0.01h-0.42V157.53L49.64,157.53z
			 M52.81,159.28v-3.03h0.86c0.33,0,0.54,0.01,0.64,0.05c0.15,0.05,0.28,0.14,0.38,0.3c0.1,0.15,0.15,0.35,0.15,0.59
			c0,0.19-0.03,0.34-0.09,0.47c-0.06,0.13-0.13,0.23-0.23,0.3c-0.09,0.07-0.18,0.12-0.28,0.14c-0.13,0.03-0.31,0.04-0.56,0.04h-0.35
			v1.14H52.81L52.81,159.28z M53.35,156.76v0.86h0.29c0.21,0,0.35-0.02,0.42-0.05c0.07-0.03,0.13-0.08,0.17-0.15
			c0.04-0.07,0.06-0.15,0.06-0.24c0-0.11-0.03-0.2-0.08-0.27c-0.06-0.07-0.13-0.12-0.22-0.14c-0.06-0.01-0.19-0.02-0.38-0.02H53.35
			L53.35,156.76z M55.28,159.28v-3.03h1.97v0.51h-1.43v0.67h1.33v0.51h-1.33v0.82h1.48v0.51H55.28L55.28,159.28z M57.61,158.3
			l0.52-0.06c0.03,0.2,0.09,0.35,0.19,0.44c0.1,0.09,0.22,0.14,0.39,0.14c0.17,0,0.3-0.04,0.39-0.12c0.09-0.08,0.13-0.18,0.13-0.29
			c0-0.07-0.02-0.13-0.06-0.18c-0.04-0.05-0.1-0.09-0.19-0.13c-0.06-0.03-0.2-0.07-0.43-0.13c-0.29-0.08-0.49-0.18-0.6-0.3
			c-0.16-0.17-0.24-0.37-0.24-0.61c0-0.15,0.04-0.3,0.11-0.43c0.08-0.13,0.19-0.24,0.33-0.31c0.14-0.07,0.32-0.11,0.52-0.11
			c0.33,0,0.58,0.08,0.75,0.25c0.17,0.17,0.26,0.39,0.26,0.67l-0.54,0.02c-0.02-0.16-0.07-0.27-0.15-0.34
			c-0.08-0.07-0.19-0.1-0.34-0.1c-0.15,0-0.28,0.04-0.36,0.11c-0.06,0.05-0.09,0.11-0.09,0.19c0,0.07,0.03,0.13,0.08,0.18
			c0.07,0.07,0.23,0.13,0.49,0.2c0.26,0.07,0.45,0.14,0.58,0.22c0.12,0.08,0.22,0.18,0.29,0.31c0.07,0.13,0.11,0.29,0.11,0.48
			c0,0.17-0.04,0.34-0.13,0.49c-0.08,0.15-0.2,0.26-0.36,0.34c-0.15,0.07-0.35,0.11-0.58,0.11c-0.34,0-0.59-0.09-0.77-0.26
			C57.76,158.89,57.65,158.63,57.61,158.3L57.61,158.3z M60.09,158.3l0.52-0.06c0.03,0.2,0.09,0.35,0.19,0.44
			c0.1,0.09,0.23,0.14,0.39,0.14c0.17,0,0.3-0.04,0.39-0.12c0.09-0.08,0.13-0.18,0.13-0.29c0-0.07-0.02-0.13-0.06-0.18
			c-0.04-0.05-0.1-0.09-0.19-0.13c-0.06-0.03-0.2-0.07-0.43-0.13c-0.29-0.08-0.49-0.18-0.6-0.3c-0.16-0.17-0.24-0.37-0.24-0.61
			c0-0.15,0.04-0.3,0.11-0.43c0.08-0.13,0.19-0.24,0.33-0.31c0.14-0.07,0.32-0.11,0.52-0.11c0.33,0,0.58,0.08,0.75,0.25
			c0.17,0.17,0.26,0.39,0.26,0.67l-0.54,0.02c-0.02-0.16-0.07-0.27-0.15-0.34c-0.07-0.07-0.19-0.1-0.34-0.1
			c-0.15,0-0.28,0.04-0.36,0.11c-0.06,0.05-0.08,0.11-0.08,0.19c0,0.07,0.03,0.13,0.08,0.18c0.07,0.07,0.23,0.13,0.49,0.2
			c0.26,0.07,0.45,0.14,0.58,0.22c0.12,0.08,0.22,0.18,0.29,0.31c0.07,0.13,0.11,0.29,0.11,0.48c0,0.17-0.04,0.34-0.13,0.49
			c-0.08,0.15-0.2,0.26-0.36,0.34c-0.15,0.07-0.35,0.11-0.58,0.11c-0.34,0-0.59-0.09-0.77-0.26
			C60.23,158.89,60.12,158.63,60.09,158.3L60.09,158.3z M62.59,157.78c0-0.31,0.04-0.57,0.12-0.78c0.06-0.15,0.14-0.29,0.25-0.42
			c0.1-0.12,0.22-0.21,0.34-0.27c0.17-0.08,0.36-0.12,0.57-0.12c0.39,0,0.7,0.14,0.94,0.42c0.23,0.28,0.35,0.66,0.35,1.16
			c0,0.49-0.12,0.87-0.35,1.15c-0.23,0.28-0.55,0.41-0.94,0.41c-0.39,0-0.71-0.14-0.94-0.41C62.71,158.65,62.59,158.27,62.59,157.78
			L62.59,157.78z M63.14,157.76c0,0.34,0.07,0.6,0.21,0.78c0.14,0.18,0.32,0.27,0.53,0.27c0.21,0,0.39-0.09,0.53-0.26
			c0.14-0.18,0.21-0.44,0.21-0.79c0-0.35-0.07-0.61-0.2-0.78c-0.13-0.17-0.31-0.26-0.53-0.26c-0.22,0-0.4,0.09-0.54,0.26
			C63.21,157.15,63.14,157.41,63.14,157.76L63.14,157.76z M67.98,159.28H67.4l-0.23-0.69h-1.07l-0.22,0.69h-0.57l1.03-3.03h0.57
			L67.98,159.28L67.98,159.28z M67,158.08l-0.37-1.12l-0.36,1.12H67L67,158.08z M68.28,159.28v-3h0.54v2.49h1.33v0.51H68.28
			L68.28,159.28z M71.49,159.28v-3.03h1.97v0.51h-1.43v0.67h1.33v0.51h-1.33v0.82h1.48v0.51H71.49L71.49,159.28z M73.96,159.28
			v-3.03h0.81l0.48,2.06l0.47-2.06h0.81v3.03h-0.5l0-2.38l-0.52,2.38h-0.52l-0.52-2.38l0,2.38H73.96L73.96,159.28z M79.79,158.16
			l0.52,0.18c-0.08,0.33-0.21,0.58-0.4,0.74c-0.19,0.16-0.42,0.24-0.71,0.24c-0.35,0-0.64-0.14-0.87-0.41
			c-0.23-0.27-0.34-0.65-0.34-1.13c0-0.5,0.11-0.9,0.34-1.17s0.53-0.42,0.9-0.42c0.32,0,0.59,0.11,0.79,0.33
			c0.12,0.13,0.21,0.32,0.27,0.56l-0.53,0.14c-0.03-0.16-0.1-0.28-0.2-0.37c-0.1-0.09-0.22-0.14-0.36-0.14
			c-0.2,0-0.36,0.08-0.48,0.24c-0.12,0.16-0.18,0.42-0.18,0.78c0,0.38,0.06,0.65,0.18,0.82c0.12,0.16,0.28,0.24,0.47,0.24
			c0.14,0,0.27-0.05,0.37-0.16C79.67,158.55,79.74,158.38,79.79,158.16L79.79,158.16z M83.16,159.28h-0.58l-0.23-0.69h-1.06
			l-0.22,0.69h-0.57l1.03-3.03h0.57L83.16,159.28L83.16,159.28z M82.17,158.08l-0.37-1.12l-0.36,1.12H82.17L82.17,158.08z
			 M83.3,158.3l0.52-0.06c0.03,0.2,0.09,0.35,0.19,0.44c0.1,0.09,0.23,0.14,0.39,0.14c0.17,0,0.3-0.04,0.39-0.12
			c0.09-0.08,0.13-0.18,0.13-0.29c0-0.07-0.02-0.13-0.05-0.18c-0.04-0.05-0.1-0.09-0.19-0.13c-0.06-0.03-0.2-0.07-0.43-0.13
			c-0.29-0.08-0.49-0.18-0.6-0.3c-0.16-0.17-0.24-0.37-0.24-0.61c0-0.15,0.04-0.3,0.11-0.43c0.08-0.13,0.19-0.24,0.33-0.31
			c0.14-0.07,0.32-0.11,0.52-0.11c0.33,0,0.58,0.08,0.75,0.25c0.17,0.17,0.26,0.39,0.26,0.67l-0.54,0.02
			c-0.02-0.16-0.07-0.27-0.15-0.34c-0.08-0.07-0.19-0.1-0.34-0.1c-0.15,0-0.28,0.04-0.36,0.11c-0.06,0.05-0.09,0.11-0.09,0.19
			c0,0.07,0.03,0.13,0.08,0.18c0.07,0.07,0.23,0.13,0.49,0.2c0.26,0.07,0.45,0.14,0.58,0.22c0.12,0.08,0.22,0.18,0.29,0.31
			c0.07,0.13,0.11,0.29,0.11,0.48c0,0.17-0.04,0.34-0.13,0.49c-0.08,0.15-0.2,0.26-0.36,0.34c-0.15,0.07-0.35,0.11-0.58,0.11
			c-0.34,0-0.59-0.09-0.77-0.26C83.44,158.89,83.34,158.63,83.3,158.3L83.3,158.3z M85.81,157.78c0-0.31,0.04-0.57,0.12-0.78
			c0.06-0.15,0.14-0.29,0.25-0.42c0.1-0.12,0.22-0.21,0.34-0.27c0.17-0.08,0.36-0.12,0.57-0.12c0.39,0,0.7,0.14,0.94,0.42
			c0.23,0.28,0.35,0.66,0.35,1.16c0,0.49-0.12,0.87-0.35,1.15c-0.23,0.28-0.55,0.41-0.93,0.41c-0.4,0-0.71-0.14-0.94-0.41
			C85.92,158.65,85.81,158.27,85.81,157.78L85.81,157.78z M86.36,157.76c0,0.34,0.07,0.6,0.21,0.78c0.14,0.18,0.32,0.27,0.53,0.27
			c0.21,0,0.39-0.09,0.53-0.26c0.14-0.18,0.21-0.44,0.21-0.79c0-0.35-0.07-0.61-0.2-0.78c-0.13-0.17-0.31-0.26-0.53-0.26
			c-0.22,0-0.4,0.09-0.54,0.26C86.43,157.15,86.36,157.41,86.36,157.76L86.36,157.76z M89.83,156.25h0.98c0.22,0,0.39,0.02,0.5,0.06
			c0.15,0.05,0.29,0.15,0.4,0.28c0.11,0.13,0.2,0.3,0.25,0.49c0.06,0.19,0.09,0.43,0.09,0.71c0,0.25-0.03,0.46-0.08,0.64
			c-0.07,0.22-0.16,0.4-0.28,0.53c-0.09,0.1-0.22,0.18-0.38,0.24c-0.12,0.04-0.28,0.06-0.47,0.06h-1.01V156.25L89.83,156.25z
			 M90.37,156.76v2h0.4c0.15,0,0.26-0.01,0.32-0.03c0.09-0.02,0.16-0.07,0.22-0.13c0.06-0.06,0.1-0.16,0.14-0.29
			c0.04-0.14,0.05-0.32,0.05-0.55s-0.02-0.41-0.05-0.54c-0.04-0.13-0.09-0.22-0.15-0.29c-0.06-0.07-0.15-0.12-0.25-0.14
			c-0.07-0.02-0.22-0.03-0.44-0.03H90.37L90.37,156.76z M92.51,159.28v-3.03h1.97v0.51h-1.43v0.67h1.33v0.51h-1.33v0.82h1.48v0.51
			H92.51L92.51,159.28z M96.01,156.25h0.98c0.22,0,0.39,0.02,0.5,0.06c0.15,0.05,0.29,0.15,0.4,0.28c0.11,0.13,0.2,0.3,0.25,0.49
			c0.06,0.19,0.09,0.43,0.09,0.71c0,0.25-0.03,0.46-0.08,0.64c-0.07,0.22-0.16,0.4-0.28,0.53c-0.09,0.1-0.22,0.18-0.38,0.24
			c-0.12,0.04-0.28,0.06-0.47,0.06h-1.01V156.25L96.01,156.25z M96.55,156.76v2h0.4c0.15,0,0.26-0.01,0.32-0.03
			c0.09-0.02,0.16-0.07,0.22-0.13c0.06-0.06,0.1-0.16,0.14-0.29c0.04-0.14,0.05-0.32,0.05-0.55s-0.02-0.41-0.05-0.54
			c-0.04-0.13-0.09-0.22-0.15-0.29c-0.06-0.07-0.15-0.12-0.25-0.14c-0.07-0.02-0.22-0.03-0.44-0.03H96.55L96.55,156.76z
			 M98.69,159.28v-3.03h1.97v0.51h-1.43v0.67h1.33v0.51h-1.33v0.82h1.48v0.51H98.69L98.69,159.28z M101.02,158.3l0.52-0.06
			c0.03,0.2,0.09,0.35,0.19,0.44c0.1,0.09,0.22,0.14,0.39,0.14c0.17,0,0.3-0.04,0.39-0.12c0.09-0.08,0.13-0.18,0.13-0.29
			c0-0.07-0.02-0.13-0.06-0.18c-0.04-0.05-0.1-0.09-0.19-0.13c-0.06-0.03-0.2-0.07-0.43-0.13c-0.29-0.08-0.49-0.18-0.6-0.3
			c-0.16-0.17-0.24-0.37-0.24-0.61c0-0.15,0.04-0.3,0.11-0.43c0.08-0.13,0.19-0.24,0.33-0.31c0.14-0.07,0.32-0.11,0.52-0.11
			c0.33,0,0.58,0.08,0.75,0.25c0.17,0.17,0.26,0.39,0.26,0.67l-0.54,0.02c-0.02-0.16-0.07-0.27-0.15-0.34
			c-0.07-0.07-0.19-0.1-0.34-0.1c-0.15,0-0.28,0.04-0.36,0.11c-0.06,0.05-0.08,0.11-0.08,0.19c0,0.07,0.03,0.13,0.08,0.18
			c0.07,0.07,0.23,0.13,0.49,0.2c0.26,0.07,0.45,0.14,0.58,0.22c0.12,0.08,0.22,0.18,0.29,0.31c0.07,0.13,0.11,0.29,0.11,0.48
			c0,0.17-0.04,0.34-0.13,0.49c-0.08,0.15-0.2,0.26-0.36,0.34c-0.15,0.07-0.35,0.11-0.58,0.11c-0.34,0-0.59-0.09-0.77-0.26
			C101.17,158.89,101.06,158.63,101.02,158.3L101.02,158.3z M103.65,159.28v-3h0.54v2.49h1.33v0.51H103.65L103.65,159.28z
			 M105.88,159.28v-3.03h0.54v3.03H105.88L105.88,159.28z M108.17,158.17v-0.51h1.15v1.21c-0.11,0.12-0.27,0.23-0.49,0.33
			c-0.21,0.09-0.43,0.14-0.65,0.14c-0.28,0-0.52-0.07-0.73-0.2c-0.21-0.13-0.36-0.32-0.46-0.57c-0.1-0.25-0.16-0.52-0.16-0.81
			c0-0.32,0.06-0.6,0.17-0.84c0.12-0.25,0.29-0.43,0.51-0.56c0.17-0.1,0.38-0.15,0.64-0.15c0.33,0,0.59,0.08,0.77,0.24
			c0.18,0.16,0.3,0.38,0.36,0.66l-0.53,0.11c-0.04-0.15-0.11-0.27-0.21-0.35c-0.1-0.09-0.23-0.13-0.39-0.13
			c-0.23,0-0.42,0.08-0.56,0.25c-0.14,0.17-0.21,0.42-0.21,0.75c0,0.36,0.07,0.63,0.21,0.81c0.14,0.18,0.32,0.27,0.55,0.27
			c0.11,0,0.22-0.03,0.34-0.08c0.11-0.05,0.21-0.11,0.29-0.18v-0.38H108.17L108.17,158.17z M112.21,159.28h-0.58l-0.23-0.69h-1.06
			l-0.22,0.69h-0.57l1.03-3.03h0.57L112.21,159.28L112.21,159.28z M111.23,158.08l-0.37-1.12l-0.36,1.12H111.23L111.23,158.08z
			 M112.49,159.28v-3.03h0.81l0.48,2.06l0.47-2.06h0.81v3.03h-0.5l0-2.38l-0.52,2.38h-0.52l-0.52-2.38l0,2.38H112.49L112.49,159.28z
			 M115.58,159.28v-3.03h1.97v0.51h-1.43v0.67h1.33v0.51h-1.33v0.82h1.48v0.51H115.58L115.58,159.28z M118.06,159.28v-3.03h0.52
			l1.09,2.03v-2.03h0.5v3.03h-0.54l-1.08-1.99v1.99H118.06L118.06,159.28z M121.33,159.28v-2.51h-0.79v-0.51h2.11v0.51h-0.78v2.51
			H121.33L121.33,159.28z M122.82,157.78c0-0.31,0.04-0.57,0.12-0.78c0.06-0.15,0.14-0.29,0.25-0.42c0.1-0.12,0.22-0.21,0.34-0.27
			c0.17-0.08,0.36-0.12,0.57-0.12c0.39,0,0.7,0.14,0.94,0.42c0.23,0.28,0.35,0.66,0.35,1.16c0,0.49-0.12,0.87-0.35,1.15
			c-0.23,0.28-0.55,0.41-0.93,0.41c-0.4,0-0.71-0.14-0.94-0.41C122.94,158.65,122.82,158.27,122.82,157.78L122.82,157.78z
			 M123.38,157.76c0,0.34,0.07,0.6,0.21,0.78c0.14,0.18,0.32,0.27,0.53,0.27c0.21,0,0.39-0.09,0.53-0.26
			c0.14-0.18,0.21-0.44,0.21-0.79c0-0.35-0.07-0.61-0.2-0.78c-0.13-0.17-0.31-0.26-0.53-0.26c-0.22,0-0.4,0.09-0.54,0.26
			C123.44,157.15,123.38,157.41,123.38,157.76L123.38,157.76z M125.81,159.28v-0.58h0.51v0.58H125.81L125.81,159.28z M11.46,165.54
			v-3.03h1.97v0.51H12v0.67h1.33v0.51H12v0.82h1.48v0.51H11.46L11.46,165.54z M13.93,165.54v-3.03h0.81l0.48,2.06l0.47-2.06h0.81
			v3.03h-0.5l0-2.38l-0.52,2.38h-0.52l-0.52-2.38l0,2.38H13.93L13.93,165.54z M19.75,164.42l0.52,0.18
			c-0.08,0.33-0.21,0.58-0.4,0.74c-0.19,0.16-0.42,0.24-0.71,0.24c-0.35,0-0.64-0.14-0.87-0.41c-0.23-0.27-0.34-0.65-0.34-1.13
			c0-0.5,0.11-0.9,0.34-1.17c0.23-0.28,0.53-0.42,0.9-0.42c0.32,0,0.59,0.11,0.79,0.33c0.12,0.13,0.21,0.32,0.27,0.56l-0.53,0.14
			c-0.03-0.16-0.1-0.28-0.2-0.37c-0.1-0.09-0.22-0.14-0.36-0.14c-0.2,0-0.36,0.08-0.48,0.24c-0.12,0.16-0.18,0.42-0.18,0.78
			c0,0.38,0.06,0.65,0.18,0.82c0.12,0.16,0.28,0.24,0.47,0.24c0.14,0,0.27-0.05,0.37-0.15C19.63,164.8,19.71,164.64,19.75,164.42
			L19.75,164.42z M23.12,165.54h-0.58l-0.23-0.69h-1.06l-0.22,0.69h-0.57l1.03-3.03h0.57L23.12,165.54L23.12,165.54z M22.14,164.34
			l-0.37-1.12l-0.36,1.12H22.14L22.14,164.34z M23.27,164.56l0.52-0.06c0.03,0.2,0.1,0.34,0.19,0.44c0.1,0.09,0.22,0.14,0.39,0.14
			c0.17,0,0.3-0.04,0.39-0.12c0.09-0.08,0.13-0.18,0.13-0.29c0-0.07-0.02-0.13-0.06-0.18c-0.04-0.05-0.1-0.09-0.19-0.13
			c-0.06-0.03-0.2-0.07-0.43-0.13c-0.29-0.08-0.49-0.18-0.6-0.3c-0.16-0.17-0.24-0.37-0.24-0.61c0-0.15,0.04-0.3,0.11-0.43
			c0.08-0.13,0.19-0.24,0.33-0.31c0.14-0.07,0.32-0.11,0.52-0.11c0.33,0,0.58,0.08,0.75,0.25c0.17,0.17,0.26,0.39,0.26,0.67
			l-0.54,0.02c-0.02-0.16-0.07-0.27-0.15-0.34c-0.07-0.07-0.19-0.1-0.34-0.1c-0.15,0-0.28,0.04-0.36,0.11
			c-0.06,0.05-0.09,0.11-0.09,0.19c0,0.07,0.03,0.13,0.08,0.18c0.07,0.07,0.23,0.13,0.49,0.2c0.26,0.07,0.45,0.14,0.58,0.22
			c0.12,0.08,0.22,0.18,0.29,0.31c0.07,0.13,0.11,0.29,0.11,0.48c0,0.17-0.04,0.34-0.13,0.49c-0.08,0.15-0.2,0.26-0.36,0.34
			c-0.15,0.07-0.35,0.11-0.58,0.11c-0.34,0-0.59-0.09-0.77-0.26C23.41,165.15,23.3,164.89,23.27,164.56z"/>
		<path class="st8" d="M25.77,164.04c0-0.31,0.04-0.57,0.12-0.78c0.06-0.15,0.14-0.29,0.25-0.42c0.1-0.12,0.22-0.21,0.34-0.27
			c0.17-0.08,0.36-0.12,0.57-0.12c0.39,0,0.7,0.14,0.94,0.42c0.23,0.28,0.35,0.66,0.35,1.16c0,0.49-0.12,0.87-0.35,1.15
			c-0.23,0.28-0.55,0.41-0.93,0.41c-0.4,0-0.71-0.14-0.94-0.41C25.89,164.9,25.77,164.52,25.77,164.04L25.77,164.04z M26.32,164.02
			c0,0.34,0.07,0.6,0.21,0.78c0.14,0.18,0.32,0.27,0.53,0.27c0.21,0,0.39-0.09,0.53-0.26c0.14-0.18,0.21-0.44,0.21-0.79
			c0-0.35-0.07-0.61-0.2-0.78c-0.13-0.17-0.31-0.26-0.53-0.26c-0.22,0-0.4,0.09-0.54,0.26C26.39,163.41,26.32,163.67,26.32,164.02
			L26.32,164.02z M29.8,162.51h0.98c0.22,0,0.39,0.02,0.5,0.06c0.16,0.05,0.29,0.15,0.4,0.28c0.11,0.13,0.2,0.3,0.25,0.49
			c0.06,0.19,0.09,0.43,0.09,0.71c0,0.25-0.03,0.46-0.08,0.64c-0.07,0.22-0.16,0.4-0.28,0.53c-0.09,0.1-0.22,0.18-0.38,0.24
			c-0.12,0.04-0.28,0.06-0.47,0.06H29.8V162.51L29.8,162.51z M30.34,163.02v2h0.4c0.15,0,0.26-0.01,0.32-0.03
			c0.09-0.02,0.16-0.07,0.22-0.13c0.06-0.06,0.1-0.16,0.14-0.29c0.04-0.14,0.05-0.32,0.05-0.55c0-0.23-0.02-0.41-0.05-0.54
			c-0.04-0.13-0.09-0.22-0.15-0.29c-0.06-0.07-0.15-0.12-0.25-0.14c-0.07-0.02-0.22-0.03-0.44-0.03H30.34L30.34,163.02z
			 M32.48,165.54v-3.03h1.97v0.51h-1.43v0.67h1.33v0.51h-1.33v0.82h1.48v0.51H32.48L32.48,165.54z M35.98,165.54v-3.03h1.97v0.51
			h-1.43v0.67h1.33v0.51h-1.33v0.82H38v0.51H35.98L35.98,165.54z M38.18,165.54l0.92-1.58l-0.83-1.45h0.63l0.52,0.9l0.52-0.9h0.63
			l-0.83,1.45l0.91,1.58h-0.64l-0.59-1.02l-0.59,1.02H38.18L38.18,165.54z M41.52,165.54v-2.51h-0.79v-0.51h2.11v0.51h-0.78v2.51
			H41.52L41.52,165.54z M43.19,165.54v-3.03h1.13c0.28,0,0.49,0.03,0.62,0.08c0.13,0.05,0.23,0.15,0.31,0.29
			c0.08,0.14,0.12,0.3,0.12,0.48c0,0.23-0.06,0.41-0.17,0.56c-0.12,0.15-0.29,0.24-0.52,0.28c0.12,0.08,0.21,0.16,0.29,0.25
			c0.08,0.09,0.18,0.26,0.3,0.49l0.32,0.59h-0.64l-0.38-0.66c-0.14-0.23-0.23-0.38-0.28-0.44c-0.05-0.06-0.1-0.1-0.16-0.13
			c-0.06-0.02-0.15-0.03-0.27-0.03h-0.11v1.26H43.19L43.19,165.54z M43.73,163.79h0.4c0.26,0,0.42-0.01,0.48-0.04
			c0.06-0.02,0.11-0.07,0.15-0.13c0.04-0.06,0.05-0.14,0.05-0.23c0-0.1-0.02-0.18-0.07-0.25c-0.05-0.06-0.11-0.1-0.2-0.12
			c-0.04-0.01-0.17-0.01-0.39-0.01h-0.42V163.79L43.73,163.79z M48.26,165.54h-0.58l-0.23-0.69h-1.06l-0.22,0.69H45.6l1.03-3.03
			h0.57L48.26,165.54L48.26,165.54z M47.28,164.34l-0.37-1.12l-0.36,1.12H47.28L47.28,164.34z M48.95,165.54h0.58l0.94-3.03H49.9
			l-0.65,2.24l-0.67-2.24H48L48.95,165.54L48.95,165.54z M50.73,165.54v-3.03h0.54v3.03H50.73L50.73,165.54z M51.67,164.04
			c0-0.31,0.04-0.57,0.12-0.78c0.06-0.15,0.14-0.29,0.25-0.42c0.1-0.12,0.22-0.21,0.34-0.27c0.17-0.08,0.36-0.12,0.57-0.12
			c0.39,0,0.7,0.14,0.94,0.42c0.23,0.28,0.35,0.66,0.35,1.16c0,0.49-0.12,0.87-0.35,1.15c-0.23,0.28-0.55,0.41-0.94,0.41
			c-0.39,0-0.71-0.14-0.94-0.41C51.78,164.9,51.67,164.52,51.67,164.04L51.67,164.04z M52.22,164.02c0,0.34,0.07,0.6,0.21,0.78
			c0.14,0.18,0.32,0.27,0.53,0.27c0.21,0,0.39-0.09,0.53-0.26c0.14-0.18,0.21-0.44,0.21-0.79c0-0.35-0.07-0.61-0.2-0.78
			c-0.13-0.17-0.31-0.26-0.53-0.26c-0.22,0-0.4,0.09-0.54,0.26C52.29,163.41,52.22,163.67,52.22,164.02L52.22,164.02z M56.29,165.54
			v-2.51H55.5v-0.51h2.11v0.51h-0.78v2.51H56.29L56.29,165.54z M60.07,165.54l-1.06-3.03h-0.57l-1.03,3.03h0.57l0.22-0.69h1.06
			l0.23,0.69H60.07L60.07,165.54z M59.09,164.34h-0.73l0.36-1.12L59.09,164.34L59.09,164.34z M60.37,165.54v-3h0.54v2.49h1.33v0.51
			H60.37L60.37,165.54z M63.59,165.54v-3.03h1.82v0.51h-1.29v0.72h1.11v0.51h-1.11v1.28H63.59L63.59,165.54z M68.04,165.54
			l-1.06-3.03h-0.57l-1.03,3.03h0.57l0.22-0.69h1.07l0.23,0.69H68.04L68.04,165.54z M67.06,164.34h-0.73l0.36-1.12L67.06,164.34
			L67.06,164.34z M68.65,165.54v-2.51h-0.79v-0.51h2.11v0.51h-0.78v2.51H68.65L68.65,165.54z M70.14,164.04
			c0-0.31,0.04-0.57,0.12-0.78c0.06-0.15,0.14-0.29,0.25-0.42c0.1-0.12,0.22-0.21,0.34-0.27c0.17-0.08,0.36-0.12,0.57-0.12
			c0.39,0,0.7,0.14,0.94,0.42c0.23,0.28,0.35,0.66,0.35,1.16c0,0.49-0.12,0.87-0.35,1.15c-0.23,0.28-0.55,0.41-0.93,0.41
			c-0.4,0-0.71-0.14-0.94-0.41C70.26,164.9,70.14,164.52,70.14,164.04L70.14,164.04z M70.69,164.02c0,0.34,0.07,0.6,0.21,0.78
			c0.14,0.18,0.32,0.27,0.53,0.27c0.21,0,0.39-0.09,0.53-0.26c0.14-0.18,0.21-0.44,0.21-0.79c0-0.35-0.07-0.61-0.2-0.78
			c-0.13-0.17-0.31-0.26-0.53-0.26c-0.22,0-0.4,0.09-0.54,0.26C70.76,163.41,70.69,163.67,70.69,164.02L70.69,164.02z M74.17,162.51
			h0.98c0.22,0,0.39,0.02,0.5,0.06c0.16,0.05,0.29,0.15,0.4,0.28c0.11,0.13,0.2,0.3,0.25,0.49c0.06,0.19,0.09,0.43,0.09,0.71
			c0,0.25-0.03,0.46-0.08,0.64c-0.07,0.22-0.16,0.4-0.28,0.53c-0.09,0.1-0.22,0.18-0.38,0.24c-0.12,0.04-0.28,0.06-0.47,0.06h-1.01
			V162.51L74.17,162.51z M74.7,163.02v2h0.4c0.15,0,0.26-0.01,0.32-0.03c0.09-0.02,0.16-0.07,0.22-0.13
			c0.06-0.06,0.1-0.16,0.14-0.29c0.04-0.14,0.05-0.32,0.05-0.55c0-0.23-0.02-0.41-0.05-0.54c-0.04-0.13-0.09-0.22-0.15-0.29
			c-0.06-0.07-0.15-0.12-0.25-0.14c-0.07-0.02-0.22-0.03-0.44-0.03H74.7L74.7,163.02z M76.84,165.54v-3.03h1.97v0.51h-1.43v0.67
			h1.33v0.51h-1.33v0.82h1.48v0.51H76.84L76.84,165.54z M80,165.54l-0.95-3.03h0.58l0.67,2.24l0.65-2.24h0.57l-0.94,3.03H80
			L80,165.54z M81.79,165.54v-3.03h1.97v0.51h-1.43v0.67h1.33v0.51h-1.33v0.82h1.48v0.51H81.79L81.79,165.54z M84.26,165.54v-3.03
			h1.13c0.28,0,0.49,0.03,0.62,0.08c0.13,0.05,0.23,0.15,0.31,0.29c0.08,0.14,0.12,0.3,0.12,0.48c0,0.23-0.06,0.41-0.17,0.56
			c-0.12,0.15-0.29,0.24-0.52,0.28c0.12,0.08,0.21,0.16,0.29,0.25c0.08,0.09,0.18,0.26,0.3,0.49l0.32,0.59h-0.64l-0.38-0.66
			c-0.14-0.23-0.23-0.38-0.28-0.44c-0.05-0.06-0.1-0.1-0.16-0.13c-0.06-0.02-0.15-0.03-0.27-0.03H84.8v1.26H84.26L84.26,165.54z
			 M84.8,163.79h0.4c0.26,0,0.42-0.01,0.48-0.04c0.06-0.02,0.11-0.07,0.15-0.13c0.04-0.06,0.05-0.14,0.05-0.23
			c0-0.1-0.02-0.18-0.07-0.25c-0.05-0.06-0.12-0.1-0.2-0.12c-0.04-0.01-0.17-0.01-0.39-0.01H84.8V163.79L84.8,163.79z M89.33,165.54
			h-0.58l-0.23-0.69h-1.07l-0.22,0.69h-0.57l1.03-3.03h0.57L89.33,165.54L89.33,165.54z M88.35,164.34l-0.37-1.12l-0.36,1.12H88.35
			L88.35,164.34z M87.79,162.24l0.25-0.62h0.57l-0.5,0.62H87.79L87.79,162.24z M90.51,164.56l0.52-0.06
			c0.03,0.2,0.09,0.34,0.19,0.44c0.1,0.09,0.22,0.14,0.39,0.14c0.17,0,0.3-0.04,0.39-0.12c0.09-0.08,0.13-0.18,0.13-0.29
			c0-0.07-0.02-0.13-0.06-0.18c-0.04-0.05-0.1-0.09-0.19-0.13c-0.06-0.03-0.2-0.07-0.43-0.13c-0.29-0.08-0.49-0.18-0.6-0.3
			c-0.16-0.17-0.24-0.37-0.24-0.61c0-0.15,0.04-0.3,0.11-0.43c0.08-0.13,0.19-0.24,0.33-0.31c0.14-0.07,0.32-0.11,0.52-0.11
			c0.33,0,0.58,0.08,0.75,0.25c0.17,0.17,0.26,0.39,0.26,0.67l-0.54,0.02c-0.02-0.16-0.07-0.27-0.15-0.34
			c-0.07-0.07-0.19-0.1-0.34-0.1c-0.15,0-0.28,0.04-0.36,0.11c-0.06,0.05-0.08,0.11-0.08,0.19c0,0.07,0.03,0.13,0.08,0.18
			c0.07,0.07,0.23,0.13,0.49,0.2c0.26,0.07,0.45,0.14,0.58,0.22c0.12,0.08,0.22,0.18,0.29,0.31c0.07,0.13,0.11,0.29,0.11,0.48
			c0,0.17-0.04,0.34-0.13,0.49c-0.09,0.15-0.2,0.26-0.36,0.34c-0.15,0.07-0.35,0.11-0.58,0.11c-0.34,0-0.59-0.09-0.77-0.26
			C90.65,165.15,90.54,164.89,90.51,164.56L90.51,164.56z M93.12,165.54v-3.03h1.97v0.51h-1.43v0.67h1.33v0.51h-1.33v0.82h1.48v0.51
			H93.12L93.12,165.54z M95.6,165.54v-3.03h1.13c0.28,0,0.49,0.03,0.62,0.08c0.13,0.05,0.23,0.15,0.31,0.29
			c0.08,0.14,0.12,0.3,0.12,0.48c0,0.23-0.06,0.41-0.17,0.56c-0.12,0.15-0.29,0.24-0.52,0.28c0.12,0.08,0.21,0.16,0.29,0.25
			c0.08,0.09,0.18,0.26,0.3,0.49l0.32,0.59h-0.64l-0.38-0.66c-0.14-0.23-0.23-0.38-0.28-0.44c-0.05-0.06-0.1-0.1-0.16-0.13
			c-0.06-0.02-0.15-0.03-0.27-0.03h-0.11v1.26H95.6L95.6,165.54z M96.13,163.79h0.4c0.26,0,0.42-0.01,0.48-0.04
			c0.06-0.02,0.11-0.07,0.15-0.13c0.04-0.06,0.05-0.14,0.05-0.23c0-0.1-0.02-0.18-0.07-0.25c-0.05-0.06-0.11-0.1-0.2-0.12
			c-0.04-0.01-0.17-0.01-0.39-0.01h-0.42V163.79L96.13,163.79z M101,164.42l0.52,0.18c-0.08,0.33-0.21,0.58-0.4,0.74
			c-0.19,0.16-0.42,0.24-0.71,0.24c-0.35,0-0.64-0.14-0.87-0.41c-0.23-0.27-0.34-0.65-0.34-1.13c0-0.5,0.11-0.9,0.34-1.17
			c0.23-0.28,0.53-0.42,0.9-0.42c0.33,0,0.59,0.11,0.79,0.33c0.12,0.13,0.21,0.32,0.27,0.56l-0.53,0.14
			c-0.03-0.16-0.1-0.28-0.2-0.37c-0.1-0.09-0.22-0.14-0.36-0.14c-0.2,0-0.36,0.08-0.48,0.24c-0.12,0.16-0.18,0.42-0.18,0.78
			c0,0.38,0.06,0.65,0.18,0.82c0.12,0.16,0.28,0.24,0.47,0.24c0.14,0,0.27-0.05,0.37-0.15C100.89,164.8,100.96,164.64,101,164.42
			L101,164.42z M101.87,164.04c0-0.31,0.04-0.57,0.12-0.78c0.06-0.15,0.14-0.29,0.25-0.42c0.1-0.12,0.22-0.21,0.34-0.27
			c0.17-0.08,0.36-0.12,0.57-0.12c0.39,0,0.7,0.14,0.94,0.42c0.23,0.28,0.35,0.66,0.35,1.16c0,0.49-0.12,0.87-0.35,1.15
			c-0.23,0.28-0.55,0.41-0.94,0.41c-0.39,0-0.71-0.14-0.94-0.41C101.99,164.9,101.87,164.52,101.87,164.04L101.87,164.04z
			 M102.42,164.02c0,0.34,0.07,0.6,0.21,0.78c0.14,0.18,0.32,0.27,0.53,0.27c0.21,0,0.39-0.09,0.53-0.26
			c0.14-0.18,0.21-0.44,0.21-0.79c0-0.35-0.07-0.61-0.2-0.78c-0.13-0.17-0.31-0.26-0.53-0.26c-0.22,0-0.4,0.09-0.54,0.26
			C102.49,163.41,102.42,163.67,102.42,164.02L102.42,164.02z M104.86,165.54v-3.03h0.81l0.48,2.06l0.47-2.06h0.81v3.03h-0.5l0-2.38
			l-0.52,2.38h-0.52l-0.52-2.38l0,2.38H104.86L104.86,165.54z M107.96,162.51h0.54v1.64c0,0.26,0.01,0.43,0.02,0.51
			c0.02,0.12,0.08,0.22,0.16,0.3c0.09,0.08,0.2,0.11,0.35,0.11c0.15,0,0.26-0.04,0.34-0.11c0.08-0.07,0.12-0.16,0.14-0.26
			c0.02-0.1,0.02-0.27,0.02-0.51v-1.67h0.54v1.59c0,0.36-0.01,0.62-0.04,0.77c-0.03,0.15-0.08,0.28-0.16,0.38
			c-0.08,0.1-0.18,0.19-0.31,0.25c-0.13,0.06-0.3,0.09-0.51,0.09c-0.25,0-0.44-0.03-0.57-0.1c-0.13-0.07-0.23-0.15-0.31-0.26
			c-0.08-0.11-0.13-0.22-0.15-0.34c-0.04-0.17-0.05-0.43-0.05-0.77V162.51L107.96,162.51z M110.64,165.54v-3.03h0.52l1.09,2.03
			v-2.03h0.5v3.03h-0.54l-1.08-1.99v1.99H110.64L110.64,165.54z M113.3,165.54v-3.03h0.54v3.03H113.3L113.3,165.54z M116.04,164.42
			l0.52,0.18c-0.08,0.33-0.21,0.58-0.4,0.74c-0.19,0.16-0.42,0.24-0.71,0.24c-0.35,0-0.64-0.14-0.87-0.41
			c-0.23-0.27-0.34-0.65-0.34-1.13c0-0.5,0.11-0.9,0.34-1.17c0.23-0.28,0.53-0.42,0.9-0.42c0.32,0,0.59,0.11,0.79,0.33
			c0.12,0.13,0.21,0.32,0.27,0.56l-0.53,0.14c-0.03-0.16-0.1-0.28-0.2-0.37c-0.1-0.09-0.22-0.14-0.36-0.14
			c-0.2,0-0.36,0.08-0.48,0.24c-0.12,0.16-0.18,0.42-0.18,0.78c0,0.38,0.06,0.65,0.18,0.82c0.12,0.16,0.28,0.24,0.47,0.24
			c0.14,0,0.27-0.05,0.37-0.15C115.92,164.8,116,164.64,116.04,164.42L116.04,164.42z M119.41,165.54h-0.58l-0.23-0.69h-1.06
			l-0.22,0.69h-0.57l1.03-3.03h0.57L119.41,165.54L119.41,165.54z M118.43,164.34l-0.37-1.12l-0.36,1.12H118.43L118.43,164.34z
			 M119.7,162.51h0.98c0.22,0,0.39,0.02,0.5,0.06c0.16,0.05,0.29,0.15,0.4,0.28c0.11,0.13,0.2,0.3,0.25,0.49
			c0.06,0.19,0.09,0.43,0.09,0.71c0,0.25-0.03,0.46-0.08,0.64c-0.07,0.22-0.16,0.4-0.28,0.53c-0.09,0.1-0.22,0.18-0.38,0.24
			c-0.12,0.04-0.28,0.06-0.47,0.06h-1.01V162.51L119.7,162.51z M120.24,163.02v2h0.4c0.15,0,0.26-0.01,0.32-0.03
			c0.09-0.02,0.16-0.07,0.22-0.13c0.06-0.06,0.1-0.16,0.14-0.29c0.04-0.14,0.05-0.32,0.05-0.55c0-0.23-0.02-0.41-0.05-0.54
			c-0.04-0.13-0.09-0.22-0.15-0.29c-0.06-0.07-0.15-0.12-0.25-0.14c-0.07-0.02-0.22-0.03-0.44-0.03H120.24L120.24,163.02z
			 M122.27,164.04c0-0.31,0.04-0.57,0.12-0.78c0.06-0.15,0.14-0.29,0.25-0.42c0.1-0.12,0.22-0.21,0.34-0.27
			c0.17-0.08,0.36-0.12,0.57-0.12c0.39,0,0.7,0.14,0.94,0.42c0.23,0.28,0.35,0.66,0.35,1.16c0,0.49-0.12,0.87-0.35,1.15
			c-0.23,0.28-0.55,0.41-0.93,0.41c-0.4,0-0.71-0.14-0.94-0.41C122.38,164.9,122.27,164.52,122.27,164.04L122.27,164.04z
			 M122.82,164.02c0,0.34,0.07,0.6,0.21,0.78c0.14,0.18,0.32,0.27,0.53,0.27c0.21,0,0.39-0.09,0.53-0.26
			c0.14-0.18,0.21-0.44,0.21-0.79c0-0.35-0.07-0.61-0.2-0.78c-0.13-0.17-0.31-0.26-0.53-0.26c-0.22,0-0.4,0.09-0.54,0.26
			C122.89,163.41,122.82,163.67,122.82,164.02L122.82,164.02z M11.44,171.79v-3.03h0.54v3.03H11.44L11.44,171.79z M12.48,171.79
			v-3.03h0.81l0.48,2.06l0.47-2.06h0.81v3.03h-0.5l0-2.38l-0.52,2.38H13.5l-0.52-2.38l0,2.38H12.48L12.48,171.79z M15.58,171.79
			v-3.03h1.97v0.51h-1.43v0.67h1.33v0.51h-1.33v0.82h1.48v0.51H15.58L15.58,171.79z M18.05,168.77h0.98c0.22,0,0.39,0.02,0.5,0.06
			c0.16,0.05,0.29,0.15,0.4,0.28c0.11,0.13,0.2,0.3,0.25,0.49c0.06,0.19,0.09,0.43,0.09,0.71c0,0.25-0.03,0.46-0.08,0.64
			c-0.07,0.22-0.16,0.4-0.28,0.53c-0.09,0.1-0.22,0.18-0.38,0.24c-0.12,0.04-0.28,0.06-0.47,0.06h-1.01V168.77L18.05,168.77z
			 M18.59,169.28v2h0.4c0.15,0,0.26-0.01,0.32-0.03c0.09-0.02,0.16-0.07,0.22-0.13c0.06-0.06,0.1-0.16,0.14-0.29
			c0.04-0.14,0.05-0.32,0.05-0.55c0-0.23-0.02-0.41-0.05-0.54c-0.04-0.13-0.09-0.22-0.15-0.29c-0.06-0.07-0.15-0.12-0.25-0.14
			c-0.07-0.02-0.22-0.03-0.44-0.03H18.59L18.59,169.28z M20.71,171.79v-3.03h0.54v3.03H20.71L20.71,171.79z M24.15,171.79h-0.58
			l-0.23-0.69h-1.07l-0.22,0.69h-0.57l1.03-3.03h0.57L24.15,171.79L24.15,171.79z M23.17,170.59l-0.37-1.12l-0.36,1.12H23.17
			L23.17,170.59z M24.76,171.79h0.54v-2.51h0.78v-0.51h-2.11v0.51h0.79V171.79L24.76,171.79z M28.55,171.79h-0.58l-0.23-0.69h-1.07
			l-0.22,0.69h-0.57l1.03-3.03h0.57L28.55,171.79L28.55,171.79z M27.56,170.59l-0.37-1.12l-0.36,1.12H27.56L27.56,170.59z
			 M28.83,171.79v-3.03h0.81l0.48,2.06l0.47-2.06h0.81v3.03h-0.5l0-2.38l-0.52,2.38h-0.52l-0.52-2.38l0,2.38H28.83L28.83,171.79z
			 M31.92,171.79v-3.03h1.97v0.51h-1.43v0.67h1.33v0.51h-1.33v0.82h1.48v0.51H31.92L31.92,171.79z M34.4,171.79v-3.03h0.52
			l1.09,2.03v-2.03h0.5v3.03h-0.54l-1.08-1.99v1.99H34.4L34.4,171.79z M37.67,171.79v-2.51h-0.79v-0.51h2.11v0.51h-0.78v2.51H37.67
			L37.67,171.79z M39.34,171.79v-3.03h1.97v0.51h-1.43v0.67h1.33v0.51h-1.33v0.82h1.48v0.51H39.34L39.34,171.79z M45.24,171.79
			h-0.58l-0.23-0.69h-1.06l-0.22,0.69h-0.57l1.03-3.03h0.57L45.24,171.79L45.24,171.79z M44.25,170.59l-0.37-1.12l-0.36,1.12H44.25
			L44.25,170.59z M44.17,168.49h-0.32l-0.5-0.62h0.57L44.17,168.49L44.17,168.49z M48.81,171.79h-0.58L48,171.11h-1.06l-0.22,0.69
			h-0.57l1.03-3.03h0.57L48.81,171.79L48.81,171.79z M47.82,170.59l-0.37-1.12l-0.36,1.12H47.82L47.82,170.59z M49.09,168.77h0.98
			c0.22,0,0.39,0.02,0.5,0.06c0.15,0.05,0.29,0.15,0.4,0.28c0.11,0.13,0.2,0.3,0.25,0.49c0.06,0.19,0.09,0.43,0.09,0.71
			c0,0.25-0.03,0.46-0.08,0.64c-0.07,0.22-0.16,0.4-0.28,0.53c-0.09,0.1-0.22,0.18-0.38,0.24c-0.12,0.04-0.28,0.06-0.47,0.06h-1.01
			V168.77L49.09,168.77z M49.63,169.28v2h0.4c0.15,0,0.26-0.01,0.32-0.03c0.09-0.02,0.16-0.07,0.22-0.13
			c0.06-0.06,0.1-0.16,0.14-0.29c0.04-0.14,0.05-0.32,0.05-0.55c0-0.23-0.02-0.41-0.05-0.54c-0.04-0.13-0.09-0.22-0.15-0.29
			c-0.07-0.07-0.15-0.12-0.25-0.14c-0.07-0.02-0.22-0.03-0.44-0.03H49.63L49.63,169.28z M51.76,171.79v-3.03h0.81l0.48,2.06
			l0.47-2.06h0.81v3.03h-0.5l0-2.38l-0.52,2.38h-0.52l-0.52-2.38l0,2.38H51.76L51.76,171.79z M54.84,171.79v-3.03h0.54v3.03H54.84
			L54.84,171.79z M55.89,171.79v-3.03h0.52l1.09,2.03v-2.03H58v3.03h-0.54l-1.08-1.99v1.99H55.89L55.89,171.79z M58.55,171.79v-3.03
			h0.54v3.03H58.55L58.55,171.79z M59.46,170.81l0.52-0.06c0.03,0.2,0.09,0.35,0.19,0.44c0.1,0.09,0.22,0.14,0.39,0.14
			c0.17,0,0.3-0.04,0.39-0.12c0.09-0.08,0.13-0.18,0.13-0.29c0-0.07-0.02-0.13-0.05-0.18c-0.04-0.05-0.1-0.09-0.19-0.13
			c-0.06-0.03-0.2-0.07-0.43-0.13c-0.29-0.08-0.49-0.18-0.6-0.3c-0.16-0.17-0.24-0.37-0.24-0.61c0-0.15,0.04-0.3,0.11-0.43
			c0.08-0.13,0.19-0.24,0.33-0.31c0.14-0.07,0.32-0.11,0.52-0.11c0.33,0,0.58,0.08,0.75,0.25c0.17,0.17,0.26,0.39,0.26,0.67
			L61,169.66c-0.02-0.16-0.07-0.27-0.15-0.34c-0.07-0.07-0.19-0.1-0.34-0.1c-0.15,0-0.28,0.04-0.36,0.11
			c-0.06,0.05-0.08,0.11-0.08,0.19c0,0.07,0.03,0.13,0.08,0.18c0.07,0.07,0.23,0.13,0.49,0.2c0.26,0.07,0.45,0.14,0.58,0.22
			c0.12,0.08,0.22,0.18,0.29,0.31c0.07,0.13,0.11,0.29,0.11,0.48c0,0.17-0.04,0.34-0.13,0.49c-0.08,0.15-0.2,0.26-0.36,0.34
			c-0.15,0.07-0.35,0.11-0.58,0.11c-0.34,0-0.59-0.09-0.77-0.26C59.6,171.41,59.49,171.15,59.46,170.81L59.46,170.81z M62.67,171.79
			v-2.51h-0.79v-0.51h2.11v0.51h-0.78v2.51H62.67L62.67,171.79z M64.34,171.79v-3.03h1.13c0.28,0,0.49,0.03,0.62,0.08
			c0.13,0.05,0.23,0.15,0.31,0.29c0.08,0.14,0.12,0.3,0.12,0.48c0,0.23-0.06,0.41-0.17,0.56c-0.12,0.15-0.29,0.24-0.52,0.28
			c0.12,0.08,0.21,0.16,0.29,0.25c0.08,0.09,0.18,0.26,0.3,0.49l0.32,0.59h-0.64l-0.38-0.66c-0.14-0.23-0.23-0.38-0.28-0.44
			c-0.05-0.06-0.1-0.1-0.16-0.13c-0.06-0.02-0.15-0.03-0.27-0.03h-0.11v1.26H64.34L64.34,171.79z M64.87,170.05h0.4
			c0.26,0,0.42-0.01,0.48-0.04c0.06-0.02,0.11-0.07,0.15-0.13c0.04-0.06,0.05-0.14,0.05-0.23c0-0.1-0.02-0.18-0.07-0.25
			c-0.05-0.06-0.11-0.1-0.2-0.12c-0.04-0.01-0.17-0.01-0.39-0.01h-0.42V170.05L64.87,170.05z M69.41,171.79h-0.58l-0.23-0.69h-1.06
			l-0.22,0.69h-0.57l1.03-3.03h0.57L69.41,171.79L69.41,171.79z M68.42,170.59l-0.37-1.12l-0.36,1.12H68.42L68.42,170.59z
			 M71.39,170.68l0.52,0.18c-0.08,0.33-0.21,0.58-0.4,0.74c-0.19,0.16-0.42,0.24-0.71,0.24c-0.35,0-0.64-0.14-0.87-0.41
			c-0.23-0.27-0.34-0.65-0.34-1.13c0-0.5,0.11-0.9,0.34-1.17c0.23-0.28,0.53-0.42,0.9-0.42c0.32,0,0.59,0.11,0.79,0.33
			c0.12,0.13,0.21,0.32,0.27,0.56l-0.53,0.14c-0.03-0.16-0.1-0.28-0.2-0.37c-0.1-0.09-0.22-0.14-0.36-0.14
			c-0.2,0-0.36,0.08-0.48,0.24c-0.12,0.16-0.18,0.42-0.18,0.78c0,0.38,0.06,0.65,0.18,0.82c0.12,0.16,0.28,0.24,0.47,0.24
			c0.14,0,0.27-0.05,0.37-0.16S71.35,170.9,71.39,170.68L71.39,170.68z M70.22,172.6c0.08,0.02,0.2,0.03,0.35,0.03
			c0.22,0,0.39-0.05,0.5-0.15c0.09-0.08,0.13-0.17,0.13-0.3c0-0.11-0.04-0.2-0.12-0.28c-0.08-0.08-0.19-0.11-0.34-0.11
			c-0.11,0-0.21,0.02-0.3,0.06l-0.05,0.2c0.08-0.03,0.16-0.04,0.24-0.04c0.08,0,0.14,0.02,0.17,0.05c0.04,0.03,0.06,0.08,0.06,0.12
			c0,0.05-0.02,0.1-0.06,0.13c-0.05,0.04-0.13,0.07-0.24,0.07c-0.1,0-0.22-0.01-0.34-0.02V172.6L70.22,172.6z M74.76,171.79h-0.58
			l-0.23-0.69h-1.06l-0.22,0.69H72.1l1.03-3.03h0.57L74.76,171.79L74.76,171.79z M73.78,170.59l-0.37-1.12l-0.36,1.12H73.78
			L73.78,170.59z M73.05,168.5h-0.23c0-0.03,0-0.06,0-0.07c0-0.14,0.03-0.26,0.09-0.33c0.06-0.08,0.14-0.12,0.24-0.12
			c0.04,0,0.08,0,0.12,0.02c0.04,0.01,0.1,0.04,0.2,0.09c0.1,0.05,0.17,0.07,0.23,0.07c0.04,0,0.07-0.01,0.1-0.04
			c0.03-0.03,0.04-0.07,0.05-0.14h0.23c0,0.19-0.03,0.32-0.09,0.4c-0.06,0.08-0.14,0.12-0.23,0.12c-0.04,0-0.08,0-0.12-0.01
			c-0.03-0.01-0.1-0.04-0.21-0.09c-0.11-0.05-0.19-0.07-0.24-0.07c-0.04,0-0.07,0.01-0.09,0.04
			C73.06,168.38,73.05,168.43,73.05,168.5L73.05,168.5z M74.94,170.3c0-0.31,0.04-0.57,0.12-0.78c0.06-0.15,0.14-0.29,0.25-0.42
			c0.1-0.12,0.22-0.21,0.34-0.27c0.17-0.08,0.36-0.12,0.57-0.12c0.39,0,0.7,0.14,0.94,0.42c0.24,0.28,0.35,0.66,0.35,1.16
			c0,0.49-0.12,0.87-0.35,1.15c-0.23,0.28-0.55,0.41-0.93,0.41c-0.4,0-0.71-0.14-0.94-0.41C75.05,171.16,74.94,170.78,74.94,170.3
			L74.94,170.3z M75.49,170.28c0,0.34,0.07,0.6,0.21,0.78c0.14,0.18,0.32,0.27,0.53,0.27c0.21,0,0.39-0.09,0.53-0.26
			c0.14-0.18,0.21-0.44,0.21-0.79c0-0.35-0.07-0.61-0.2-0.78c-0.13-0.17-0.31-0.26-0.53-0.26c-0.22,0-0.4,0.09-0.54,0.26
			C75.56,169.67,75.49,169.93,75.49,170.28L75.49,170.28z M77.93,171.79v-0.58h0.51v0.58H77.93z"/>
	</g>
</g>
</svg>
